<?xml version="1.0" encoding="UTF-8"?>
<svg version="1.1" xmlns="http://www.w3.org/2000/svg" width="1024" height="1024">
<path d="M0 0 C337.92 0 675.84 0 1024 0 C1024 337.92 1024 675.84 1024 1024 C686.08 1024 348.16 1024 0 1024 C0 686.08 0 348.16 0 0 Z " fill="#FEFEFE" transform="translate(0,0)"/>
<path d="M0 0 C3.42761192 1.58001103 6.6955904 3.41668531 9.96826172 5.29296875 C12.71995276 6.85312099 15.50191005 8.34737286 18.29296875 9.8359375 C22.71885302 12.19658959 27.13677968 14.57090952 31.546875 16.9609375 C37.15516802 20.00002386 42.77083898 23.02508791 48.38964844 26.04467773 C58.3538418 31.40046882 68.30081346 36.78652252 78.22753906 42.21142578 C84.94784707 45.88335921 91.6787129 49.53542471 98.4140625 53.1796875 C106.04764275 57.30995156 113.67288653 61.45492312 121.2890625 65.6171875 C130.37092498 70.57862096 139.47819642 75.49186064 148.59228516 80.39379883 C158.91244193 85.944989 169.22033388 91.51849966 179.51904297 97.109375 C182.39016769 98.66672651 185.26335801 100.22021626 188.13671875 101.7734375 C193.57583247 104.71818961 198.99905961 107.69086129 204.4140625 110.6796875 C205.31189453 111.17275391 206.20972656 111.66582031 207.13476562 112.17382812 C209.75667789 113.62033503 212.3678841 115.08447492 214.9765625 116.5546875 C215.75620361 116.98281738 216.53584473 117.41094727 217.33911133 117.85205078 C222.08637936 120.56041794 225.26090648 123.18567485 228.4140625 127.6796875 C229.23056172 131.59888378 228.80149757 133.08246226 226.625 136.4375 C222.53160035 141.14006234 216.83863604 143.66826671 211.4140625 146.5546875 C210.21602044 147.20412308 209.0186868 147.85486702 207.82202148 148.50683594 C205.30739222 149.87515516 202.78947059 151.23711927 200.26904297 152.59472656 C194.59380887 155.65690194 188.95688907 158.78834537 183.31558228 161.91241455 C180.29356508 163.58407485 177.26765854 165.24866417 174.2421875 166.9140625 C169.89256106 169.30989829 165.54865353 171.71548337 161.2109375 174.1328125 C160.27628662 174.65198242 159.34163574 175.17115234 158.37866211 175.70605469 C156.6588472 176.66166574 154.94079534 177.6204594 153.22485352 178.58300781 C152.47905029 178.99647461 151.73324707 179.40994141 150.96484375 179.8359375 C150.32200439 180.19494141 149.67916504 180.55394531 149.0168457 180.92382812 C147.4140625 181.6796875 147.4140625 181.6796875 145.4140625 181.6796875 C145.4140625 203.1296875 145.4140625 224.5796875 145.4140625 246.6796875 C137.43038846 250.36446013 129.56048744 253.93312991 121.40234375 257.1484375 C120.40380875 257.54563492 119.40527374 257.94283234 118.3764801 258.35206604 C116.2558583 259.19540616 114.13464646 260.03726395 112.01287842 260.87771606 C106.39213867 263.10453868 100.77605278 265.34302774 95.16015625 267.58203125 C94.04884338 268.02494003 92.93753052 268.46784882 91.7925415 268.92417908 C82.92917785 272.46191597 74.10127464 276.07929506 65.2890625 279.7421875 C51.07833044 285.64388901 36.78530447 291.33270844 22.4765625 296.9921875 C21.39703308 297.41936066 20.31750366 297.84653381 19.20526123 298.28665161 C16.14126857 299.49841651 13.07667238 300.70863674 10.01171875 301.91796875 C9.08530075 302.28392151 8.15888275 302.64987427 7.20439148 303.0269165 C6.3519838 303.36261658 5.49957611 303.69831665 4.62133789 304.04418945 C3.87783585 304.33727493 3.1343338 304.63036041 2.36830139 304.93232727 C-9.77124311 309.57485731 -19.90538364 304.77255135 -31.2109375 300.1796875 C-32.94100009 299.49318902 -34.67181247 298.80857747 -36.40332031 298.12573242 C-40.01177905 296.70003915 -43.61618329 295.26473142 -47.21777344 293.82177734 C-52.28996067 291.792697 -57.37596687 289.80095744 -62.46875 287.82421875 C-63.27814529 287.50996445 -64.08754059 287.19571014 -64.92146301 286.87193298 C-66.56523164 286.23376686 -68.20901526 285.59563934 -69.85281372 284.95755005 C-74.08017705 283.31408053 -78.30377698 281.66100943 -82.52734375 280.0078125 C-83.83320686 279.49668663 -83.83320686 279.49668663 -85.16545105 278.97523499 C-86.99745241 278.25816278 -88.82944788 277.54107555 -90.66143799 276.82397461 C-93.77642072 275.60515594 -96.89182914 274.38743029 -100.00732422 273.16992188 C-105.65280838 270.96364989 -111.29752932 268.75543483 -116.94177246 266.54598999 C-119.11954138 265.69374929 -121.29751152 264.84202256 -123.47570801 263.99087524 C-126.55867676 262.78594177 -129.64075341 261.57875053 -132.72265625 260.37109375 C-133.5944603 260.03088196 -134.46626434 259.69067017 -135.36448669 259.34014893 C-145.8213811 255.23681287 -156.18553658 250.93439697 -166.5859375 246.6796875 C-166.5859375 225.2296875 -166.5859375 203.7796875 -166.5859375 181.6796875 C-168.5659375 181.0196875 -170.5459375 180.3596875 -172.5859375 179.6796875 C-173.84582701 179.06872781 -175.08759074 178.41786524 -176.30078125 177.71875 C-176.97616943 177.33525391 -177.65155762 176.95175781 -178.34741211 176.55664062 C-179.42454468 175.93692383 -179.42454468 175.93692383 -180.5234375 175.3046875 C-188.93329407 170.54126784 -197.46650026 166.04515799 -206.05639648 161.61572266 C-206.99298096 161.13151855 -207.92956543 160.64731445 -208.89453125 160.1484375 C-209.72782959 159.71982422 -210.56112793 159.29121094 -211.41967773 158.84960938 C-213.5859375 157.6796875 -213.5859375 157.6796875 -216.5859375 155.6796875 C-216.9159375 177.4596875 -217.2459375 199.2396875 -217.5859375 221.6796875 C-215.9359375 222.3396875 -214.2859375 222.9996875 -212.5859375 223.6796875 C-207.17705297 228.41704009 -204.84993058 233.40617332 -204.2734375 240.5546875 C-204.49311527 246.96195581 -206.45137275 251.80218116 -210.8359375 256.4921875 C-216.60826569 261.75943698 -222.1719239 263.27668932 -229.875 263.0234375 C-236.74320013 262.15254181 -241.02851316 258.77256429 -245.359375 253.55859375 C-249.21946437 247.64552691 -249.46011381 241.54821567 -248.5859375 234.6796875 C-246.5155199 229.46086627 -242.79332505 225.31850917 -238.5859375 221.6796875 C-237.9259375 221.6796875 -237.2659375 221.6796875 -236.5859375 221.6796875 C-236.5859375 195.9396875 -236.5859375 170.1996875 -236.5859375 143.6796875 C-238.5659375 143.0196875 -240.5459375 142.3596875 -242.5859375 141.6796875 C-246.73376105 139.16609086 -249.20173765 136.812066 -250.7734375 132.1796875 C-250.54936173 127.99693971 -249.3947936 125.67082787 -246.5859375 122.6796875 C-243.53876326 120.4621647 -240.2780722 118.70974638 -236.9609375 116.9296875 C-235.47944214 116.11310669 -235.47944214 116.11310669 -233.96801758 115.2800293 C-230.51909338 113.39091479 -227.05586404 111.52981821 -223.5859375 109.6796875 C-222.9188678 109.32400696 -222.2517981 108.96832642 -221.56451416 108.60186768 C-214.98427347 105.09716802 -208.39556832 101.6085505 -201.79882812 98.13500977 C-193.79415657 93.91933924 -185.82334935 89.66051059 -177.93530273 85.22924805 C-171.93500381 81.85981055 -165.89000009 78.57644326 -159.8359375 75.3046875 C-152.0775814 71.11149535 -144.32549128 66.90749218 -136.5859375 62.6796875 C-128.92771566 58.49733247 -121.26020588 54.33252355 -113.5859375 50.1796875 C-102.23858855 44.03860814 -90.90972017 37.86408935 -79.5859375 31.6796875 C-70.19344656 26.55004663 -60.79964525 21.42287734 -51.39453125 16.31640625 C-50.36110596 15.75518066 -49.32768066 15.19395508 -48.26293945 14.61572266 C-46.20262479 13.50037163 -44.13998942 12.38929583 -42.07495117 11.28271484 C-37.75089535 8.96328436 -33.45604182 6.63640872 -29.265625 4.08203125 C-19.58504251 -1.73714003 -10.94143839 -4.02854703 0 0 Z " fill="#6558E7" transform="translate(522.5859375,212.3203125)"/>
<path d="M0 0 C5.70643195 4.19498431 10.88633586 8.53100946 15.875 13.5625 C16.57189941 14.26503906 17.26879883 14.96757812 17.98681641 15.69140625 C23.89913703 21.74211491 29.21584383 28.00637483 34 35 C34.61367432 35.8957373 34.61367432 35.8957373 35.23974609 36.80957031 C48.33033958 56.21681486 57.67683943 77.95268701 62 101 C62.20496094 102.02738281 62.40992188 103.05476563 62.62109375 104.11328125 C69.08445269 142.75971023 60.23547243 181.86717225 42 216 C41.45730469 217.02609375 40.91460938 218.0521875 40.35546875 219.109375 C32.52940012 233.20010683 22.17775233 245.47592842 11 257 C10.195625 257.84433594 9.39125 258.68867187 8.5625 259.55859375 C2.70439983 265.58958923 2.70439983 265.58958923 -0.22486877 267.29629517 C-2.93692346 268.99574563 -4.9460275 270.53559101 -7 273 C-7.86745435 277.38533792 -7.15762822 281.40110699 -6.453125 285.78125 C-6.29213318 287.02636353 -6.13114136 288.27147705 -5.965271 289.55432129 C-5.52730001 292.87316235 -5.04831462 296.180553 -4.5479126 299.49017334 C-4.06154314 302.77139847 -3.62917691 306.05964919 -3.19140625 309.34765625 C-2.33444256 315.7120159 -1.43252317 322.06894359 -0.51489258 328.42480469 C0.26690775 333.85329405 1.02841468 339.28403238 1.765625 344.71875 C1.89225525 345.60606812 2.0188855 346.49338623 2.14935303 347.40759277 C4.27747061 363.24852484 4.27747061 363.24852484 1.375 369.5 C-2.57479084 373.65767457 -6.00720971 375.15878887 -11.68359375 375.39453125 C-17.5186109 375.31390192 -20.855768 373.22366658 -25.4375 369.8125 C-26.20263916 369.27294678 -26.96777832 368.73339355 -27.75610352 368.17749023 C-29.36968627 367.03923406 -30.9769699 365.89200056 -32.578125 364.73632812 C-35.70775263 362.49258703 -38.88837924 360.32921689 -42.07446289 358.16674805 C-44.45995592 356.54725484 -46.83831079 354.9177648 -49.21484375 353.28515625 C-53.97272313 350.01781383 -58.73585909 346.75820328 -63.5 343.5 C-68.36846148 340.16982483 -73.23616878 336.83856228 -78.1015625 333.50390625 C-78.94267578 332.92769531 -79.78378906 332.35148437 -80.65039062 331.7578125 C-82.24054638 330.66842403 -83.83041456 329.57861563 -85.41992188 328.48828125 C-86.87987632 327.48834775 -88.344653 326.49541404 -89.81445312 325.51000977 C-91.32904708 324.46356611 -92.81093978 323.36879288 -94.26367188 322.23803711 C-98.27114492 319.11654923 -98.27114492 319.11654923 -103.05712891 317.85522461 C-105.21199877 318.20534541 -107.17525254 318.75942343 -109.25 319.4375 C-110.81694921 319.86696755 -112.38608227 320.28852699 -113.95703125 320.703125 C-115.18220459 321.03473633 -115.18220459 321.03473633 -116.43212891 321.37304688 C-120.88581069 322.46042611 -125.39849106 323.07139845 -129.9375 323.6875 C-130.77635742 323.80601318 -131.61521484 323.92452637 -132.47949219 324.04663086 C-186.70531927 331.46672684 -244.22847624 319.11571132 -289 287 C-293.53481735 283.55289082 -297.77943559 279.82108712 -302 276 C-302.86753906 275.25234375 -303.73507812 274.5046875 -304.62890625 273.734375 C-338.80299365 243.99917532 -357.964992 200.77402079 -361.79711914 156.06201172 C-363.74218222 126.70583703 -361.11909726 97.11513156 -349 70 C-344.30757539 70.60793636 -340.18109533 71.93601961 -335.82421875 73.7109375 C-335.12359818 73.99037704 -334.4229776 74.26981659 -333.7011261 74.557724 C-332.1709178 75.16858271 -330.64175604 75.78206803 -329.11352539 76.39785767 C-324.85559954 78.11284367 -320.58934006 79.80691332 -316.32421875 81.50390625 C-315.41364716 81.86677231 -314.50307556 82.22963837 -313.56491089 82.60350037 C-302.73802927 86.9121861 -291.86872167 91.11076558 -281 95.3125 C-265.45121557 101.32709734 -249.91610247 107.37492472 -234.39642334 113.4642334 C-214.92186616 121.10714606 -214.92186616 121.10714606 -195.375 128.5625 C-194.43970459 128.9145752 -193.50440918 129.26665039 -192.54077148 129.62939453 C-181.08406527 133.89385369 -170.40224025 134.60593752 -158.77392578 130.48657227 C-158.0020952 130.22078904 -157.23026463 129.95500582 -156.43504524 129.68116856 C-146.91903643 126.35223468 -137.5823581 122.56515103 -128.2421875 118.77734375 C-126.28209582 117.9870552 -124.32181504 117.19723555 -122.36135864 116.40785217 C-117.23282256 114.34133608 -112.10692252 112.26836025 -106.98156738 110.19396973 C-101.86827039 108.12586623 -96.75235893 106.06425198 -91.63671875 104.00195312 C-80.96192073 99.69710084 -70.29145832 95.38159052 -59.62272644 91.06172943 C-57.10306053 90.04172086 -54.58313654 89.02235296 -52.06311035 88.00323486 C-48.3587575 86.50508183 -44.65500832 85.00544768 -40.95181656 83.50442696 C-39.65022502 82.97703162 -38.34846453 82.45005298 -37.04650497 81.92356682 C-30.46336168 79.26075829 -23.89566717 76.56208428 -17.35498047 73.79663086 C-15.65775345 73.08077065 -15.65775345 73.08077065 -13.92623901 72.35044861 C-7.41520498 69.3456302 -4.12623867 65.36826395 -1 59 C0.02652657 55.7903997 0.12123256 52.85739693 0.11352539 49.49707031 C0.11341209 47.84581146 0.11341209 47.84581146 0.11329651 46.16119385 C0.10813522 44.97878113 0.10297394 43.79636841 0.09765625 42.578125 C0.0962413 41.36300232 0.09482635 40.14787964 0.09336853 38.89593506 C0.08776988 35.01393169 0.0752176 31.13198594 0.0625 27.25 C0.05748483 24.61849042 0.05292195 21.98697993 0.04882812 19.35546875 C0.03780089 12.90362617 0.02106408 6.4518172 0 0 Z " fill="#2A87EB" transform="translate(689,406)"/>
<path d="M0 0 C2 1 2 1 2.92385864 3.18135071 C3.39684891 4.6255262 3.39684891 4.6255262 3.87939453 6.09887695 C4.239617 7.18703201 4.59983948 8.27518707 4.97097778 9.39631653 C5.35438324 10.58166489 5.7377887 11.76701324 6.1328125 12.98828125 C6.52951141 14.19816208 6.92621033 15.40804291 7.33493042 16.65458679 C8.17407245 19.22002557 9.01015442 21.78623289 9.84130859 24.35424805 C10.90594251 27.64255383 11.98246718 30.92681376 13.06289864 34.20995808 C14.09219805 37.34244648 15.11217549 40.47796172 16.1328125 43.61328125 C16.52026642 44.79255692 16.90772034 45.97183258 17.30691528 47.18684387 C17.83779251 48.83326118 17.83779251 48.83326118 18.37939453 50.51293945 C18.69313019 51.47810989 19.00686584 52.44328033 19.33010864 53.43769836 C20 56 20 56 20 60 C41.45 60 62.9 60 85 60 C79.37818774 65.62181226 79.37818774 65.62181226 76.46875 67.76171875 C75.83001953 68.23544922 75.19128906 68.70917969 74.53320312 69.19726562 C73.86224609 69.68904297 73.19128906 70.18082031 72.5 70.6875 C71.06199393 71.75322373 69.62450034 72.81963929 68.1875 73.88671875 C67.47722656 74.41313965 66.76695312 74.93956055 66.03515625 75.48193359 C63.16488123 77.62293288 60.33208492 79.80867429 57.5 82 C50.05972232 87.74632767 42.53106063 93.37345662 35 99 C36.91474988 106.23113487 39.01288033 113.37332841 41.3203125 120.48828125 C41.94410364 122.4303086 42.5677988 124.37236678 43.19140625 126.31445312 C44.16206079 129.32772172 45.13406642 132.34054375 46.10791016 135.3527832 C47.05732363 138.29263369 48.00160206 141.23409597 48.9453125 144.17578125 C49.23697296 145.07275223 49.52863342 145.96972321 49.82913208 146.89387512 C51.22414575 151.25093648 52.40986509 155.44440087 53 160 C42.33278245 153.49201865 32.20086102 146.20572282 22 139 C20.34506255 137.83201642 18.69011494 136.66404723 17.03515625 135.49609375 C14.78675737 133.90913973 12.5387445 132.32166396 10.29248047 130.73168945 C9.63779785 130.26851318 8.98311523 129.80533691 8.30859375 129.328125 C7.73939209 128.9249707 7.17019043 128.52181641 6.58374023 128.10644531 C3.62801169 125.71266214 3.62801169 125.71266214 0.0637207 125.21533203 C-2.2246845 126.08542955 -4.00476826 127.16310372 -6.01953125 128.5546875 C-7.17062378 129.3449231 -7.17062378 129.3449231 -8.3449707 130.15112305 C-9.15925537 130.72000244 -9.97354004 131.28888184 -10.8125 131.875 C-11.6583667 132.45999268 -12.5042334 133.04498535 -13.37573242 133.64770508 C-20.40313091 138.53003004 -27.30679787 143.57035631 -34.18408203 148.66064453 C-37.35846645 151.00195576 -40.55013108 153.31867938 -43.75 155.625 C-44.33499268 156.05127686 -44.91998535 156.47755371 -45.52270508 156.91674805 C-48.01452326 158.70694695 -50.06769619 160.0225654 -53 161 C-50.99646634 153.3365482 -48.6925752 145.820316 -46.171875 138.3125 C-45.44756011 136.1290245 -44.72361209 133.94542726 -44 131.76171875 C-42.86916991 128.35884936 -41.73557677 124.95698046 -40.59570312 121.55712891 C-39.48810686 118.24901338 -38.39164134 114.93737966 -37.296875 111.625 C-36.95114441 110.60317627 -36.60541382 109.58135254 -36.24920654 108.52856445 C-35.93848206 107.58327881 -35.62775757 106.63799316 -35.30761719 105.6640625 C-35.03020691 104.83342285 -34.75279663 104.0027832 -34.46697998 103.14697266 C-33.77218212 100.83239842 -33.77218212 100.83239842 -35 98 C-37.27600263 96.13781603 -39.55434851 94.40248341 -41.9375 92.6875 C-43.40482208 91.61097642 -44.87092245 90.53278607 -46.3359375 89.453125 C-47.10260742 88.88916016 -47.86927734 88.32519531 -48.65917969 87.74414062 C-52.51132711 84.87391313 -56.28409196 81.90371161 -60.0625 78.9375 C-66.47189674 73.91498865 -72.9600415 69.02576455 -79.58227539 64.28686523 C-81.07130034 63.21370706 -82.53839617 62.1102153 -84 61 C-84 60.67 -84 60.34 -84 60 C-62.55 60 -41.1 60 -19 60 C-18.34 57.03 -17.68 54.06 -17 51 C-16.15550762 48.23629679 -15.28679923 45.50644815 -14.35546875 42.7734375 C-14.10380447 42.02268951 -13.8521402 41.27194153 -13.59284973 40.4984436 C-12.79533919 38.12249952 -11.99159657 35.74872217 -11.1875 33.375 C-10.66038275 31.80873656 -10.13368727 30.24233112 -9.60742188 28.67578125 C-8.57552422 25.60572624 -7.54136224 22.53644938 -6.50537109 19.46777344 C-4.31835719 12.98470675 -2.15876012 6.49252069 0 0 Z " fill="#FDFDFE" transform="translate(511,284)"/>
<path d="M0 0 C3.40607061 1.59933653 6.67005231 3.44173083 9.93310547 5.3125 C12.68479651 6.87265224 15.4667538 8.36690411 18.2578125 9.85546875 C22.68369677 12.21612084 27.10162343 14.59044077 31.51171875 16.98046875 C37.12001177 20.01955511 42.73568273 23.04461916 48.35449219 26.06420898 C58.31868555 31.42000007 68.26565721 36.80605377 78.19238281 42.23095703 C84.91269082 45.90289046 91.64355665 49.55495596 98.37890625 53.19921875 C106.0124865 57.32948281 113.63773028 61.47445437 121.25390625 65.63671875 C130.33576873 70.59815221 139.44304017 75.51139189 148.55712891 80.41333008 C158.87728568 85.96452025 169.18517763 91.53803091 179.48388672 97.12890625 C182.35501144 98.68625776 185.22820176 100.23974751 188.1015625 101.79296875 C193.54067622 104.73772086 198.96390336 107.71039254 204.37890625 110.69921875 C205.27673828 111.19228516 206.17457031 111.68535156 207.09960938 112.19335938 C209.72152164 113.63986628 212.33272785 115.10400617 214.94140625 116.57421875 C215.72104736 117.00234863 216.50068848 117.43047852 217.30395508 117.87158203 C222.05122311 120.57994919 225.22575023 123.2052061 228.37890625 127.69921875 C229.19540547 131.61841503 228.76634132 133.10199351 226.58984375 136.45703125 C222.4964441 141.15959359 216.80347979 143.68779796 211.37890625 146.57421875 C210.18086419 147.22365433 208.98353055 147.87439827 207.78686523 148.52636719 C205.27223597 149.89468641 202.75431434 151.25665052 200.23388672 152.61425781 C194.55865262 155.67643319 188.92173282 158.80787662 183.28042603 161.9319458 C180.25840883 163.6036061 177.23250229 165.26819542 174.20703125 166.93359375 C169.85740481 169.32942954 165.51349728 171.73501462 161.17578125 174.15234375 C160.24113037 174.67151367 159.30647949 175.19068359 158.34350586 175.72558594 C156.62369095 176.68119699 154.90563909 177.63999065 153.18969727 178.60253906 C152.44389404 179.01600586 151.69809082 179.42947266 150.9296875 179.85546875 C150.28684814 180.21447266 149.64400879 180.57347656 148.98168945 180.94335938 C147.37890625 181.69921875 147.37890625 181.69921875 145.37890625 181.69921875 C145.37890625 203.14921875 145.37890625 224.59921875 145.37890625 246.69921875 C145.04890625 246.69921875 144.71890625 246.69921875 144.37890625 246.69921875 C144.20193162 238.40667053 144.03597717 230.11400662 143.88413048 221.82096386 C143.81327653 217.97027144 143.73861285 214.11973115 143.65527344 210.26928711 C143.57500241 206.55415507 143.50469851 202.83895642 143.44133377 199.12349892 C143.41538835 197.70524446 143.38583762 196.28705127 143.35264206 194.86894798 C143.30680042 192.88442721 143.27490443 190.89959906 143.24365234 188.91479492 C143.22144623 187.78450363 143.19924011 186.65421234 143.17636108 185.4896698 C143.37890625 182.69921875 143.37890625 182.69921875 145.37890625 179.69921875 C148.00390625 179.01171875 148.00390625 179.01171875 150.37890625 178.69921875 C150.37890625 177.70921875 150.37890625 176.71921875 150.37890625 175.69921875 C151.49265625 175.41046875 152.60640625 175.12171875 153.75390625 174.82421875 C157.38181717 174.00680546 157.38181717 174.00680546 159.37890625 171.69921875 C161.12613972 170.63849891 162.9009806 169.62278538 164.69140625 168.63671875 C165.63628906 168.10949219 166.58117187 167.58226562 167.5546875 167.0390625 C170.21764102 165.77572494 172.47744192 165.12730365 175.37890625 164.69921875 C175.37890625 164.03921875 175.37890625 163.37921875 175.37890625 162.69921875 C176.32765625 162.32796875 177.27640625 161.95671875 178.25390625 161.57421875 C182.42481978 159.81090571 186.1459794 157.44624206 189.94921875 155.00390625 C192.45968141 153.65584431 194.60769692 153.24578945 197.37890625 152.69921875 C197.70890625 152.03921875 198.03890625 151.37921875 198.37890625 150.69921875 C201.39838446 147.99210036 202.10656408 147.69921875 206.37890625 147.69921875 C206.70890625 147.03921875 207.03890625 146.37921875 207.37890625 145.69921875 C209.01681337 144.65277809 210.68898646 143.65940045 212.37890625 142.69921875 C213.22453125 142.16296875 214.07015625 141.62671875 214.94140625 141.07421875 C217.14801653 139.82946423 218.90695249 139.15698797 221.37890625 138.69921875 C221.37890625 138.03921875 221.37890625 137.37921875 221.37890625 136.69921875 C222.36890625 136.69921875 223.35890625 136.69921875 224.37890625 136.69921875 C225.31800184 131.53156604 225.31800184 131.53156604 224.87890625 126.38671875 C222.5710238 123.790351 219.55159471 123.00228722 216.37890625 121.69921875 C215.71890625 120.70921875 215.05890625 119.71921875 214.37890625 118.69921875 C212.73856432 117.97017789 211.06588707 117.31266632 209.37890625 116.69921875 C207.3713881 115.71439853 205.36956166 114.71769361 203.37890625 113.69921875 C203.37890625 113.03921875 203.37890625 112.37921875 203.37890625 111.69921875 C202.05890625 111.69921875 200.73890625 111.69921875 199.37890625 111.69921875 C199.37890625 111.03921875 199.37890625 110.37921875 199.37890625 109.69921875 C198.71890625 109.61671875 198.05890625 109.53421875 197.37890625 109.44921875 C193.38851462 108.45162084 189.99340982 106.62755192 186.37890625 104.69921875 C186.37890625 104.03921875 186.37890625 103.37921875 186.37890625 102.69921875 C185.23421875 102.51359375 185.23421875 102.51359375 184.06640625 102.32421875 C181.37890625 101.69921875 181.37890625 101.69921875 178.37890625 99.69921875 C177.38890625 99.69921875 176.39890625 99.69921875 175.37890625 99.69921875 C174.82203125 99.12171875 174.26515625 98.54421875 173.69140625 97.94921875 C171.07892169 95.40734188 168.55635806 94.15016566 165.28125 92.62890625 C163.37890625 91.69921875 163.37890625 91.69921875 160.37890625 89.69921875 C160.04890625 90.35921875 159.71890625 91.01921875 159.37890625 91.69921875 C158.71890625 90.37921875 158.05890625 89.05921875 157.37890625 87.69921875 C156.05890625 87.69921875 154.73890625 87.69921875 153.37890625 87.69921875 C152.71890625 86.37921875 152.05890625 85.05921875 151.37890625 83.69921875 C149.72890625 83.69921875 148.07890625 83.69921875 146.37890625 83.69921875 C146.04890625 83.03921875 145.71890625 82.37921875 145.37890625 81.69921875 C143.71584785 81.02360127 142.0479602 80.35988594 140.37890625 79.69921875 C137.34663371 78.08911758 134.36046869 76.40111278 131.37890625 74.69921875 C131.37890625 74.03921875 131.37890625 73.37921875 131.37890625 72.69921875 C130.55390625 72.63734375 129.72890625 72.57546875 128.87890625 72.51171875 C125.02674537 71.61746712 122.71758633 70.1356773 119.4765625 67.96875 C117.33923943 66.67521183 115.29614412 65.83313894 112.94140625 65.01171875 C109.37890625 63.69921875 109.37890625 63.69921875 108.37890625 61.69921875 C107.71890625 61.53421875 107.05890625 61.36921875 106.37890625 61.19921875 C105.71890625 61.03421875 105.05890625 60.86921875 104.37890625 60.69921875 C104.04890625 60.03921875 103.71890625 59.37921875 103.37890625 58.69921875 C101.71443996 57.96685358 100.04657304 57.24085798 98.359375 56.5625 C96.32651151 55.67638002 94.47257081 54.6426298 92.56640625 53.51171875 C89.70027372 51.53445134 89.70027372 51.53445134 87.37890625 51.69921875 C87.37890625 51.03921875 87.37890625 50.37921875 87.37890625 49.69921875 C86.05890625 49.36921875 84.73890625 49.03921875 83.37890625 48.69921875 C83.37890625 48.03921875 83.37890625 47.37921875 83.37890625 46.69921875 C82.67765625 46.59609375 81.97640625 46.49296875 81.25390625 46.38671875 C77.98752978 45.60562872 75.33172105 44.27863132 72.37890625 42.69921875 C72.37890625 42.03921875 72.37890625 41.37921875 72.37890625 40.69921875 C69.73890625 40.03921875 67.09890625 39.37921875 64.37890625 38.69921875 C64.37890625 38.03921875 64.37890625 37.37921875 64.37890625 36.69921875 C63.43015625 36.57546875 62.48140625 36.45171875 61.50390625 36.32421875 C58.37890625 35.69921875 58.37890625 35.69921875 56.37890625 33.69921875 C53.59802242 32.23925474 50.77228141 30.88678003 47.9375 29.53515625 C43.2800742 27.27238306 39.41036912 24.96797243 35.37890625 21.69921875 C33.0521876 20.68392334 30.71856155 19.68433677 28.37890625 18.69921875 C27.43015625 18.03921875 26.48140625 17.37921875 25.50390625 16.69921875 C22.15154167 14.55370542 19.15375915 13.59339841 15.33203125 12.60546875 C12.81928647 11.43955517 12.45280991 10.18168442 11.37890625 7.69921875 C9.6105781 7.06778739 9.6105781 7.06778739 7.37890625 6.69921875 C4.21598751 5.40016284 1.10860194 4.07392735 -1.93359375 2.51171875 C-3.60927506 1.55461354 -3.60927506 1.55461354 -5.62109375 1.69921875 C-5.62109375 1.03921875 -5.62109375 0.37921875 -5.62109375 -0.30078125 C-13.73167304 0.0980997 -21.17121496 2.26334247 -27.6953125 7.30078125 C-29.76691018 8.80510573 -31.15657374 9.11694205 -33.62109375 9.69921875 C-35.67993682 10.68495131 -37.72060079 11.70915914 -39.74609375 12.76171875 C-45.39991728 15.69921875 -45.39991728 15.69921875 -47.62109375 15.69921875 C-47.62109375 16.35921875 -47.62109375 17.01921875 -47.62109375 17.69921875 C-51.66562902 20.7326202 -55.77304384 21.63100436 -60.62109375 22.69921875 C-60.62109375 23.35921875 -60.62109375 24.01921875 -60.62109375 24.69921875 C-62.18228797 25.49345736 -63.74511339 26.28448998 -65.30859375 27.07421875 C-66.17871094 27.51507813 -67.04882812 27.9559375 -67.9453125 28.41015625 C-70.46882174 29.62586143 -73.00846907 30.69182833 -75.62109375 31.69921875 C-74.26998933 27.64590549 -71.75730461 26.87233028 -68.15625 25.0390625 C-67.49542923 24.69268234 -66.83460846 24.34630219 -66.15376282 23.98942566 C-64.00142105 22.86322501 -61.84256844 21.75014212 -59.68359375 20.63671875 C-57.47778673 19.48588679 -55.27382227 18.33158221 -53.07000732 17.17694092 C-51.61389621 16.41420444 -50.15723194 15.65252304 -48.70001221 14.89190674 C-42.37986309 11.58927583 -36.13629758 8.1606824 -29.92602539 4.65600586 C-28.16220247 3.66240142 -26.3919158 2.68029487 -24.62109375 1.69921875 C-23.62078125 1.13332031 -22.62046875 0.56742188 -21.58984375 -0.015625 C-14.68431232 -3.00499321 -6.96312238 -2.50131581 0 0 Z " fill="#961EE7" transform="translate(522.62109375,212.30078125)"/>
<path d="M0 0 C1.81552978 0.61614355 3.6273653 1.24318228 5.4375 1.875 C6.95150391 2.39707031 6.95150391 2.39707031 8.49609375 2.9296875 C11 4 11 4 12 6 C13.83361968 6.95076576 15.67252048 7.89257311 17.53515625 8.78515625 C21.28951389 10.63556073 24.92627179 12.69376214 28.58203125 14.73046875 C31.03483117 16.10106817 31.03483117 16.10106817 34 17 C34 17.66 34 18.32 34 19 C35.65 19 37.3 19 39 19 C39 19.99 39 20.98 39 22 C41.97 22.99 44.94 23.98 48 25 C48 25.66 48 26.32 48 27 C49.32 27 50.64 27 52 27 C53.91364996 34.6514491 54.21516619 41.82370672 54.0546875 49.68359375 C54.02942596 52.09830189 54.00470182 54.5130157 53.98046875 56.92773438 C53.93060164 60.70257579 53.87430518 64.47711732 53.80810547 68.25170898 C53.74794499 71.91652404 53.71225903 75.58094481 53.6796875 79.24609375 C53.65276825 80.38042343 53.625849 81.51475311 53.59811401 82.68345642 C53.59135651 83.73207352 53.584599 84.78069061 53.57763672 85.86108398 C53.56272186 86.7835643 53.54780701 87.70604462 53.53244019 88.65647888 C53.79272433 91.15445888 53.79272433 91.15445888 55.9079895 92.76844788 C57.86625013 93.92126238 59.66677586 94.76582147 61.8125 95.5 C64.971324 96.59419058 68.02982442 97.85634783 71.09790039 99.18408203 C74.31730985 100.56506861 77.56342843 101.87817265 80.8125 103.1875 C81.47958984 103.46013672 82.14667969 103.73277344 82.83398438 104.01367188 C86.30625288 105.49647233 86.30625288 105.49647233 90 106 C90 106.66 90 107.32 90 108 C90.61875 107.79375 91.2375 107.5875 91.875 107.375 C92.57625 107.25125 93.2775 107.1275 94 107 C94.66 107.66 95.32 108.32 96 109 C96.99 108.67 97.98 108.34 99 108 C99.99 109.485 99.99 109.485 101 111 C103.23059398 112.0637842 103.23059398 112.0637842 105.875 112.875 C111.0802894 114.65341688 116.12049849 116.68599799 121.17578125 118.8515625 C123.14827835 119.65365676 125.15130609 120.38282345 127.171875 121.0546875 C130 122 130 122 132.9375 123.5 C136.24365731 125.11934235 139.44836502 126.0486692 143 127 C145.00361307 127.65572791 147.00491933 128.31875294 149 129 C149 129.66 149 130.32 149 131 C149.825 131.12375 150.65 131.2475 151.5 131.375 C155.39772067 132.07102155 159.16739669 133.00880949 163 134 C163 134.66 163 135.32 163 136 C163.86753906 136.11472656 164.73507812 136.22945312 165.62890625 136.34765625 C169.02861741 137.00553778 171.77826737 138.03847057 174.9375 139.4375 C178.33043705 140.90608469 181.60461893 142.26957179 185.1875 143.1875 C186.115625 143.455625 187.04375 143.72375 188 144 C188.33 144.66 188.66 145.32 189 146 C190.66475686 146.34274406 192.33195323 146.67364302 194 147 C197.20883424 148.31791406 200.36675132 149.69920688 203.5 151.1875 C209.0667102 152.99668081 213.64808812 151.94614977 219 150 C219.99 150 220.98 150 222 150 C222 149.34 222 148.68 222 148 C223.65 148 225.3 148 227 148 C227 147.34 227 146.68 227 146 C228.65 146 230.3 146 232 146 C232.33 145.34 232.66 144.68 233 144 C236.34510352 142.37265234 238.18835834 142 242 142 C242 141.34 242 140.68 242 140 C243.65 140 245.3 140 247 140 C247 139.34 247 138.68 247 138 C247.845625 137.731875 248.69125 137.46375 249.5625 137.1875 C253.00548757 136.05179344 253.00548757 136.05179344 256.25 134.5625 C259.09634682 133.30583474 261.9432528 132.40620825 264.9375 131.5625 C268.24676212 130.61484767 271.15571427 129.50252838 274.1875 127.875 C277.8275533 125.93264977 280.90111363 125.34157386 285 125 C281.81542576 127.63799226 278.6480631 129.1056383 274.81030273 130.61962891 C274.20006256 130.86229996 273.58982239 131.10497101 272.96109009 131.35499573 C270.95418623 132.15137314 268.94398228 132.93902806 266.93359375 133.7265625 C265.53382015 134.27987493 264.13425126 134.83370551 262.73487854 135.38803101 C259.05732487 136.84307325 255.37686541 138.29062284 251.69580078 139.73675537 C248.68969145 140.91913129 245.68563657 142.10667314 242.68168545 143.29451942 C236.47667807 145.74810268 230.27032942 148.1983065 224.06030273 150.63916016 C222.95984116 151.07201324 221.85937958 151.50486633 220.72557068 151.95083618 C208.12635329 156.80069868 198.17257592 152.29274706 186.375 147.5 C184.64493741 146.81350152 182.91412503 146.12888997 181.18261719 145.44604492 C177.57415845 144.02035165 173.96975421 142.58504392 170.36816406 141.14208984 C165.29597683 139.1130095 160.20997063 137.12126994 155.1171875 135.14453125 C154.30779221 134.83027695 153.49839691 134.51602264 152.66447449 134.19224548 C151.02070586 133.55407936 149.37692224 132.91595184 147.73312378 132.27786255 C143.50576045 130.63439303 139.28216052 128.98132193 135.05859375 127.328125 C134.18801834 126.98737442 133.31744293 126.64662384 132.42048645 126.29554749 C130.58848509 125.57847528 128.75648962 124.86138805 126.92449951 124.14428711 C123.80951678 122.92546844 120.69410836 121.70774279 117.57861328 120.49023438 C111.93312912 118.28396239 106.28840818 116.07574733 100.64416504 113.86630249 C98.46639612 113.01406179 96.28842598 112.16233506 94.11022949 111.31118774 C91.02726074 110.10625427 87.94518409 108.89906303 84.86328125 107.69140625 C83.55557518 107.18108856 83.55557518 107.18108856 82.22145081 106.66046143 C71.7645564 102.55712537 61.40040092 98.25470947 51 94 C51 72.55 51 51.1 51 29 C49.02 28.34 47.04 27.68 45 27 C43.74011049 26.38904031 42.49834676 25.73817774 41.28515625 25.0390625 C40.60976807 24.65556641 39.93437988 24.27207031 39.23852539 23.87695312 C38.52043701 23.46380859 37.80234863 23.05066406 37.0625 22.625 C28.65264343 17.86158034 20.11943724 13.36547049 11.52954102 8.93603516 C10.12466431 8.209729 10.12466431 8.209729 8.69140625 7.46875 C7.85810791 7.04013672 7.02480957 6.61152344 6.16625977 6.16992188 C4 5 4 5 1 3 C0.67 24.78 0.34 46.56 0 69 C-0.33 69 -0.66 69 -1 69 C-1.02312589 60.1511761 -1.04091634 51.30236253 -1.05181217 42.45351505 C-1.05704046 38.34505715 -1.06413713 34.23661986 -1.07543945 30.12817383 C-1.08627025 26.16653172 -1.09227724 22.20490948 -1.09487724 18.24325371 C-1.09673114 16.72851689 -1.1003511 15.21378121 -1.10573006 13.69905281 C-1.11294307 11.58458187 -1.11399083 9.47019406 -1.11352539 7.35571289 C-1.115746 6.14992081 -1.11796661 4.94412872 -1.12025452 3.70179749 C-1 1 -1 1 0 0 Z " fill="#237BE7" transform="translate(305,365)"/>
<path d="M0 0 C5.70643195 4.19498431 10.88633586 8.53100946 15.875 13.5625 C16.57189941 14.26503906 17.26879883 14.96757812 17.98681641 15.69140625 C23.89913703 21.74211491 29.21584383 28.00637483 34 35 C34.61367432 35.8957373 34.61367432 35.8957373 35.23974609 36.80957031 C48.33033958 56.21681486 57.67683943 77.95268701 62 101 C62.20496094 102.02738281 62.40992188 103.05476563 62.62109375 104.11328125 C68.0921017 136.82613566 62.20352926 169.58064554 50 200 C49.41798828 201.45792969 49.41798828 201.45792969 48.82421875 202.9453125 C48.55222656 203.62335938 48.28023437 204.30140625 48 205 C47.01 204.67 46.02 204.34 45 204 C45.66 202.35 46.32 200.7 47 199 C47.66 199 48.32 199 49 199 C49 197.35 49 195.7 49 194 C49.66 194 50.32 194 51 194 C51.12375 192.7625 51.2475 191.525 51.375 190.25 C51.69629018 187.03709824 52.54141167 184.86150535 54 182 C54.3788941 180.55283502 54.71157534 179.09287549 55 177.625 C55.55038884 174.96406497 56.15191371 172.57106718 57.0625 170 C58.10607118 166.66057222 58.45987696 163.52512735 58.75390625 160.05078125 C59 158 59 158 60 155 C60.86336463 150.02215143 61.14769413 145.16550293 61.1328125 140.125 C61.13376923 139.39684082 61.13472595 138.66868164 61.13571167 137.91845703 C61.13638788 136.38899651 61.13457289 134.85953302 61.13037109 133.33007812 C61.12501485 131.00644403 61.13033516 128.68300318 61.13671875 126.359375 C61.13605787 124.86458291 61.1347765 123.36979094 61.1328125 121.875 C61.13584885 120.84656982 61.13584885 120.84656982 61.13894653 119.79736328 C61.10539253 112.79754775 59.8905359 106.10349097 58.5625 99.25 C58.19318359 97.30867188 58.19318359 97.30867188 57.81640625 95.328125 C57.17364195 91.8915891 57.17364195 91.8915891 55 89 C55.02513672 87.65035156 55.02513672 87.65035156 55.05078125 86.2734375 C54.98898119 82.28971067 53.74384719 79.21885515 52.1875 75.625 C51.63083667 74.29325017 51.07483987 72.96122153 50.51953125 71.62890625 C50.01808594 70.43136719 49.51664063 69.23382813 49 68 C48.44766751 66.52478285 47.90312335 65.04655611 47.375 63.5625 C46.044657 60.11570223 44.50170486 56.92080839 42.76953125 53.6640625 C42 52 42 52 42 50 C41.34 50 40.68 50 40 50 C39.67 48.35 39.34 46.7 39 45 C38.34 45 37.68 45 37 45 C35.4921875 43.1015625 35.4921875 43.1015625 33.875 40.625 C33.33617187 39.81289063 32.79734375 39.00078125 32.2421875 38.1640625 C31 36 31 36 31 34 C30.34 34 29.68 34 29 34 C27.00593626 31.23404062 25.23726317 28.44217227 23.625 25.4375 C21.93838551 22.90757826 20.05389609 21.31785028 17.67578125 19.453125 C15.09122846 17.21197433 12.98268271 14.59773326 10.80859375 11.96484375 C8.72377729 9.69991356 6.41673394 7.90061034 4 6 C4.00523682 6.79172607 4.01047363 7.58345215 4.01586914 8.39916992 C4.03668937 11.99527184 4.04967627 15.59136105 4.0625 19.1875 C4.07087891 20.43337891 4.07925781 21.67925781 4.08789062 22.96289062 C4.09111328 24.16494141 4.09433594 25.36699219 4.09765625 26.60546875 C4.10289307 27.71043701 4.10812988 28.81540527 4.11352539 29.95385742 C4.00868584 32.76693927 3.57224484 35.25396425 3 38 C2.96700268 39.36946907 2.9803338 40.74094114 3.04296875 42.109375 C3.54443762 57.84570463 3.54443762 57.84570463 -1 65 C-1.33 65.66 -1.66 66.32 -2 67 C-2.66 67 -3.32 67 -4 67 C-4.23203125 67.59554687 -4.4640625 68.19109375 -4.703125 68.8046875 C-8.00799988 74.39908414 -16.00450077 77.28700022 -22 79 C-22.62648438 79.31710937 -23.25296875 79.63421875 -23.8984375 79.9609375 C-25.99374672 80.99690823 -28.01735325 81.69235621 -30.25 82.375 C-33.31271685 83.36426254 -36.09659074 84.49022672 -38.9375 86 C-41.8699018 87.5387851 -44.68311532 88.55612155 -47.875 89.4375 C-52.49066386 90.72988588 -56.50545728 92.64921274 -60.7421875 94.8671875 C-63.41742227 96.20943332 -66.1444041 97.11612508 -69 98 C-69.680625 98.37125 -70.36125 98.7425 -71.0625 99.125 C-73.47387354 100.2140074 -75.38432839 100.14531509 -78 100 C-78 100.66 -78 101.32 -78 102 C-79.98 102.495 -79.98 102.495 -82 103 C-82 102.01 -82 101.02 -82 100 C-81.23260498 99.69408936 -80.46520996 99.38817871 -79.67456055 99.07299805 C-62.35642421 92.16606181 -45.04810932 85.23680961 -27.80322266 78.1484375 C-25.34519869 77.14142263 -22.88265227 76.14680848 -20.41796875 75.15625 C-11.2344038 71.42205886 -5.46955991 68.10465908 -1 59 C0.02652657 55.7903997 0.12123256 52.85739693 0.11352539 49.49707031 C0.11344986 48.39623108 0.11337433 47.29539185 0.11329651 46.16119385 C0.10813522 44.97878113 0.10297394 43.79636841 0.09765625 42.578125 C0.0962413 41.36300232 0.09482635 40.14787964 0.09336853 38.89593506 C0.08776988 35.01393169 0.0752176 31.13198594 0.0625 27.25 C0.05748483 24.61849042 0.05292195 21.98697993 0.04882812 19.35546875 C0.03780089 12.90362617 0.02106408 6.4518172 0 0 Z " fill="#7431E4" transform="translate(689,406)"/>
<path d="M0 0 C0.495 0.99 0.495 0.99 1 2 C-0.98 2.66 -2.96 3.32 -5 4 C-5 4.66 -5 5.32 -5 6 C-11.5 10 -11.5 10 -16 10 C-16 10.66 -16 11.32 -16 12 C-17.41042956 12.84384675 -18.82864132 13.67469496 -20.25 14.5 C-21.03890625 14.9640625 -21.8278125 15.428125 -22.640625 15.90625 C-25 17 -25 17 -29 17 C-29 17.66 -29 18.32 -29 19 C-29.99902344 19.55429687 -30.99804688 20.10859375 -32.02734375 20.6796875 C-33.33088911 21.41117338 -34.63426584 22.14295982 -35.9375 22.875 C-36.59685547 23.23980469 -37.25621094 23.60460937 -37.93554688 23.98046875 C-41.57936369 25.85417898 -41.57936369 25.85417898 -44 29 C-44.66 29 -45.32 29 -46 29 C-45.67 31.31 -45.34 33.62 -45 36 C-44.01 36.33 -43.02 36.66 -42 37 C-41 38 -40 39 -39 40 C-37.01231606 41.35162508 -35.0133653 42.68693567 -33 44 C-31.04362862 45.95637138 -31.81237851 49.72025375 -31.79125977 52.39379883 C-31.77658409 53.55480858 -31.77658409 53.55480858 -31.76161194 54.73927307 C-31.73159111 57.31184145 -31.71025408 59.8843576 -31.69140625 62.45703125 C-31.68483442 63.33372656 -31.6782626 64.21042187 -31.67149162 65.1136837 C-31.63886842 69.75423952 -31.61442508 74.39477207 -31.5949707 79.03540039 C-31.57715026 82.88176794 -31.54232351 86.72740334 -31.49243164 90.57348633 C-31.43233879 95.21071676 -31.40150991 99.84726771 -31.39179802 104.484869 C-31.38322286 106.2539834 -31.3643541 108.02307867 -31.3350544 109.79197121 C-31.29624887 112.26812936 -31.29508963 114.74162892 -31.30297852 117.21801758 C-31.2729776 118.31617798 -31.2729776 118.31617798 -31.24237061 119.43652344 C-31.27174377 121.48860168 -31.27174377 121.48860168 -32 125 C-34.90293884 127.31059265 -34.90293884 127.31059265 -38 129 C-41.26207638 133.07759547 -43.20982718 136.81997816 -44 142 C-43.45172678 144.41323287 -42.69104956 146.61598011 -41.78515625 148.91796875 C-41 151 -41 151 -40.625 153.9375 C-40.41875 154.618125 -40.2125 155.29875 -40 156 C-37.65245602 157.33903214 -37.65245602 157.33903214 -35 158 C-32 159 -32 159 -31 161 C-26.39450283 162.11249286 -26.39450283 162.11249286 -22 161 C-21.2575 160.896875 -20.515 160.79375 -19.75 160.6875 C-13.51007306 159.12751826 -9.68460004 154.98504711 -6 150 C-6 149.34 -6 148.68 -6 148 C-5.34 148 -4.68 148 -4 148 C-4.51977943 143.61900198 -5.06710084 139.31465863 -6 135 C-6.1546875 133.6696875 -6.1546875 133.6696875 -6.3125 132.3125 C-6.76510911 129.84707748 -6.76510911 129.84707748 -8.9375 128.8125 C-9.618125 128.544375 -10.29875 128.27625 -11 128 C-13 126 -13 126 -15 123 C-9.74715794 124.39045819 -7.00408241 127.68900561 -4 132 C-1.24998159 137.87503934 -1.14267978 143.93566634 -3.0625 150.0625 C-5.53182382 155.95177934 -9.85287731 159.71998455 -15.25 162.9375 C-21.66722218 164.75571295 -28.09906368 165.19902725 -34.3125 162.4375 C-40.04529755 159.11789238 -43.94826103 154.27590745 -46 148 C-46.90969722 141.05757388 -46.64959621 135.42320763 -42.4375 129.69140625 C-40.38321904 127.27427675 -38.4053759 125.08032511 -36 123 C-35.34 123 -34.68 123 -34 123 C-34 97.26 -34 71.52 -34 45 C-35.98 44.34 -37.96 43.68 -40 43 C-44.14782355 40.48640336 -46.61580015 38.1323785 -48.1875 33.5 C-47.96245738 29.2992044 -46.85123829 26.98015672 -44 24 C-40.67781111 21.64368229 -37.14802717 19.73682229 -33.5625 17.8125 C-32.05030884 16.97972534 -32.05030884 16.97972534 -30.50756836 16.13012695 C-20.41913868 10.60354507 -10.22986946 5.25956888 0 0 Z " fill="#168CEB" transform="translate(320,311)"/>
<path d="M0 0 C5.57768641 2.68555272 9.61307645 5.61307645 14 10 C16.16620544 11.29519995 16.16620544 11.29519995 18 12 C18 12.66 18 13.32 18 14 C18.680625 14.268125 19.36125 14.53625 20.0625 14.8125 C23.39710809 16.16053306 26.69743237 17.57536298 30 19 C30 19.66 30 20.32 30 21 C31.65 21.33 33.3 21.66 35 22 C35 22.66 35 23.32 35 24 C35.515625 24.0825 36.03125 24.165 36.5625 24.25 C39.30139925 25.09273823 41.52085726 26.45764563 43.98046875 27.90234375 C47.82431013 29.99154961 51.91563738 31.45167953 56 33 C57.83498047 33.71542969 57.83498047 33.71542969 59.70703125 34.4453125 C72.57109628 39.42139253 85.26243663 43.26568967 99 45 C99 45.66 99 46.32 99 47 C99.72703125 46.97679687 100.4540625 46.95359375 101.203125 46.9296875 C106.70583445 46.83092092 111.8346107 47.03329974 117.25 48.0625 C122.19968536 48.99382238 126.06678761 48.94869469 131 48 C131 48.66 131 49.32 131 50 C132.34191406 49.89171875 132.34191406 49.89171875 133.7109375 49.78125 C140.82522148 49.23516424 147.86482853 48.85203561 155 49 C153.28733122 51.14287529 152.40314731 51.93330515 149.65356445 52.38818359 C148.732771 52.39156738 147.81197754 52.39495117 146.86328125 52.3984375 C145.82333008 52.40464111 144.78337891 52.41084473 143.71191406 52.41723633 C142.59010742 52.40329834 141.46830078 52.38936035 140.3125 52.375 C139.15073242 52.36557373 137.98896484 52.35614746 136.79199219 52.34643555 C88.98236566 51.53275123 36.12437344 35.67594567 1 2 C0.67 1.34 0.34 0.68 0 0 Z " fill="#119FF2" transform="translate(386,680)"/>
<path d="M0 0 C3.36370321 1.39187719 5.21906331 2.79431396 7 6 C7.66784936 9.84013382 7.33762075 11.47579936 5.21875 14.765625 C1.11630158 19.45682395 -4.57692255 21.98937529 -10 24.875 C-11.19804206 25.52443558 -12.3953757 26.17517952 -13.59204102 26.82714844 C-16.10667028 28.19546766 -18.62459191 29.55743177 -21.14501953 30.91503906 C-26.82025363 33.97721444 -32.45717343 37.10865787 -38.09848022 40.23272705 C-41.12049742 41.90438735 -44.14640396 43.56897667 -47.171875 45.234375 C-51.52150144 47.63021079 -55.86540897 50.03579587 -60.203125 52.453125 C-61.13777588 52.97229492 -62.07242676 53.49146484 -63.03540039 54.02636719 C-64.7552153 54.98197824 -66.47326716 55.9407719 -68.18920898 56.90332031 C-69.30791382 57.52352051 -69.30791382 57.52352051 -70.44921875 58.15625 C-71.09205811 58.51525391 -71.73489746 58.87425781 -72.3972168 59.24414062 C-74 60 -74 60 -76 60 C-76 81.45 -76 102.9 -76 125 C-76.33 125 -76.66 125 -77 125 C-77.17697463 116.70745178 -77.34292908 108.41478787 -77.49477577 100.12174511 C-77.56562972 96.27105269 -77.6402934 92.4205124 -77.72363281 88.57006836 C-77.80390384 84.85493632 -77.87420774 81.13973767 -77.93757248 77.42428017 C-77.9635179 76.00602571 -77.99306863 74.58783252 -78.02626419 73.16972923 C-78.07210583 71.18520846 -78.10400182 69.20038031 -78.13525391 67.21557617 C-78.15746002 66.08528488 -78.17966614 64.95499359 -78.20254517 63.79045105 C-78 61 -78 61 -76 58 C-73.375 57.3125 -73.375 57.3125 -71 57 C-71 56.01 -71 55.02 -71 54 C-69.88625 53.71125 -68.7725 53.4225 -67.625 53.125 C-63.99708908 52.30758671 -63.99708908 52.30758671 -62 50 C-60.25276653 48.93928016 -58.47792565 47.92356663 -56.6875 46.9375 C-55.74261719 46.41027344 -54.79773438 45.88304687 -53.82421875 45.33984375 C-51.16126523 44.07650619 -48.90146433 43.4280849 -46 43 C-46 42.34 -46 41.68 -46 41 C-45.05125 40.62875 -44.1025 40.2575 -43.125 39.875 C-38.95408647 38.11168696 -35.23292685 35.74702331 -31.4296875 33.3046875 C-28.91922484 31.95662556 -26.77120933 31.5465707 -24 31 C-23.67 30.34 -23.34 29.68 -23 29 C-19.98052179 26.29288161 -19.27234217 26 -15 26 C-14.67 25.34 -14.34 24.68 -14 24 C-12.36209288 22.95355934 -10.68991979 21.9601817 -9 21 C-7.7315625 20.195625 -7.7315625 20.195625 -6.4375 19.375 C-4.23088972 18.13024548 -2.47195376 17.45776922 0 17 C0 16.34 0 15.68 0 15 C0.99 15 1.98 15 3 15 C4.18719512 9.40399595 4.18719512 9.40399595 2.625 4.125 C2.08875 3.42375 1.5525 2.7225 1 2 C0.505 1.01 0.505 1.01 0 0 Z " fill="#7E19E3" transform="translate(744,334)"/>
<path d="M0 0 C18.9379854 9.21152764 37.3516392 19.44096488 55.82641602 29.5390625 C61.41203349 32.5918957 67.00634382 35.62804766 72.60693359 38.65332031 C87.45640613 46.67542096 102.23279777 54.82778224 117 63 C117 63.99 117 64.98 117 66 C111.25 64.375 111.25 64.375 109 61 C107.35965807 60.27095914 105.68698082 59.61344757 104 59 C101.99248185 58.01517978 99.99065541 57.01847486 98 56 C98 55.34 98 54.68 98 54 C96.68 54 95.36 54 94 54 C94 53.34 94 52.68 94 52 C93.34 51.9175 92.68 51.835 92 51.75 C88.00960837 50.75240209 84.61450357 48.92833317 81 47 C81 46.34 81 45.68 81 45 C79.8553125 44.814375 79.8553125 44.814375 78.6875 44.625 C76 44 76 44 73 42 C72.01 42 71.02 42 70 42 C69.443125 41.4225 68.88625 40.845 68.3125 40.25 C65.70001544 37.70812313 63.17745181 36.45094691 59.90234375 34.9296875 C58 34 58 34 55 32 C54.505 32.99 54.505 32.99 54 34 C53.34 32.68 52.68 31.36 52 30 C50.68 30 49.36 30 48 30 C47.34 28.68 46.68 27.36 46 26 C44.35 26 42.7 26 41 26 C40.505 25.01 40.505 25.01 40 24 C38.3369416 23.32438252 36.66905395 22.66066719 35 22 C31.96772746 20.38989883 28.98156244 18.70189403 26 17 C26 16.34 26 15.68 26 15 C24.7625 14.9071875 24.7625 14.9071875 23.5 14.8125 C19.64783912 13.91824837 17.33868008 12.43645855 14.09765625 10.26953125 C11.96033318 8.97599308 9.91723787 8.13392019 7.5625 7.3125 C4 6 4 6 3 4 C0.97536745 3.34786708 0.97536745 3.34786708 -1 3 C-0.67 2.01 -0.34 1.02 0 0 Z " fill="#9D1BE7" transform="translate(628,270)"/>
<path d="M0 0 C0.33 0 0.66 0 1 0 C1.14352379 6.28049273 1.28580766 12.5610127 1.42724609 18.84155273 C1.47546576 20.97632477 1.52396503 23.11109051 1.57275391 25.24584961 C1.64299567 28.32143552 1.7122185 31.39704297 1.78125 34.47265625 C1.80312378 35.42084732 1.82499756 36.36903839 1.84753418 37.34596252 C2.18450021 52.50053516 2.18450021 52.50053516 0.0625 56.8125 C-0.29714844 57.56144531 -0.65679688 58.31039062 -1.02734375 59.08203125 C-1.34832031 59.71496094 -1.66929687 60.34789062 -2 61 C-2.495 61.99 -2.495 61.99 -3 63 C-3.66 63 -4.32 63 -5 63 C-5.23203125 63.59554687 -5.4640625 64.19109375 -5.703125 64.8046875 C-9.00799988 70.39908414 -17.00450077 73.28700022 -23 75 C-23.62648438 75.31710937 -24.25296875 75.63421875 -24.8984375 75.9609375 C-26.99374672 76.99690823 -29.01735325 77.69235621 -31.25 78.375 C-34.31271685 79.36426254 -37.09659074 80.49022672 -39.9375 82 C-42.8699018 83.5387851 -45.68311532 84.55612155 -48.875 85.4375 C-53.49066386 86.72988588 -57.50545728 88.64921274 -61.7421875 90.8671875 C-64.41742227 92.20943332 -67.1444041 93.11612508 -70 94 C-70.680625 94.37125 -71.36125 94.7425 -72.0625 95.125 C-74.47387354 96.2140074 -76.38432839 96.14531509 -79 96 C-79 96.66 -79 97.32 -79 98 C-80.98 98.495 -80.98 98.495 -83 99 C-83 98.01 -83 97.02 -83 96 C-82.23260498 95.69408936 -81.46520996 95.38817871 -80.67456055 95.07299805 C-63.35642421 88.16606181 -46.04810932 81.23680961 -28.80322266 74.1484375 C-26.34519869 73.14142263 -23.88265227 72.14680848 -21.41796875 71.15625 C-12.2344038 67.42205886 -6.46955991 64.10465908 -2 55 C-1.03664686 51.92145684 -0.85043539 49.08227119 -0.79467773 45.86425781 C-0.77473251 44.84350159 -0.75478729 43.82274536 -0.73423767 42.77105713 C-0.71752518 41.67613953 -0.70081268 40.58122192 -0.68359375 39.453125 C-0.6524221 37.76361725 -0.6524221 37.76361725 -0.62062073 36.03997803 C-0.55525667 32.44338051 -0.49630115 28.84671023 -0.4375 25.25 C-0.3943023 22.8111904 -0.3506876 20.37238816 -0.30664062 17.93359375 C-0.1995887 11.955806 -0.09779783 5.97794593 0 0 Z " fill="#572EE1" transform="translate(690,410)"/>
<path d="M0 0 C0.495 0.99 0.495 0.99 1 2 C-0.98 2.66 -2.96 3.32 -5 4 C-5 4.66 -5 5.32 -5 6 C-11.5 10 -11.5 10 -16 10 C-16 10.66 -16 11.32 -16 12 C-17.41042956 12.84384675 -18.82864132 13.67469496 -20.25 14.5 C-21.03890625 14.9640625 -21.8278125 15.428125 -22.640625 15.90625 C-25 17 -25 17 -29 17 C-29 17.66 -29 18.32 -29 19 C-29.99902344 19.55429687 -30.99804688 20.10859375 -32.02734375 20.6796875 C-33.33088911 21.41117338 -34.63426584 22.14295982 -35.9375 22.875 C-36.59685547 23.23980469 -37.25621094 23.60460937 -37.93554688 23.98046875 C-41.57936369 25.85417898 -41.57936369 25.85417898 -44 29 C-44.66 29 -45.32 29 -46 29 C-45.67 31.31 -45.34 33.62 -45 36 C-44.01 36.33 -43.02 36.66 -42 37 C-41 38 -40 39 -39 40 C-37.01231606 41.35162508 -35.0133653 42.68693567 -33 44 C-32 45 -32 45 -31.88476562 48.85986328 C-31.88605279 50.63836031 -31.89379121 52.41685865 -31.90625 54.1953125 C-31.90983521 55.1667923 -31.91342041 56.13827209 -31.91711426 57.13919067 C-31.98709129 70.38597225 -32.25051745 83.63065775 -32.5 96.875 C-32.54835975 99.52083 -32.59653791 102.16666333 -32.64453125 104.8125 C-32.76093423 111.20837306 -32.87955292 117.60420188 -33 124 C-33.33 124 -33.66 124 -34 124 C-34 97.93 -34 71.86 -34 45 C-35.98 44.34 -37.96 43.68 -40 43 C-44.14782355 40.48640336 -46.61580015 38.1323785 -48.1875 33.5 C-47.96245738 29.2992044 -46.85123829 26.98015672 -44 24 C-40.67781111 21.64368229 -37.14802717 19.73682229 -33.5625 17.8125 C-32.05030884 16.97972534 -32.05030884 16.97972534 -30.50756836 16.13012695 C-20.41913868 10.60354507 -10.22986946 5.25956888 0 0 Z " fill="#136EE7" transform="translate(320,311)"/>
<path d="M0 0 C0.66 0.33 1.32 0.66 2 1 C1.58069818 4.98336728 1.12043335 8.58601034 0 12.4375 C-0.97331309 15.90492787 -1.38367052 19.07442201 -1.71875 22.640625 C-2.00028715 25.00240887 -2.47109009 27.24463009 -3 29.5625 C-6.15623478 45.08263193 -6.34142956 63.51114905 -3 79 C-2.70570694 80.64536573 -2.41417581 82.29122719 -2.125 83.9375 C-0.35725565 93.66664112 1.67338815 103.29820459 4.44921875 112.79296875 C5 115 5 115 5 118 C5.66 118 6.32 118 7 118 C7 119.98 7 121.96 7 124 C7.66 124.33 8.32 124.66 9 125 C8.67 126.32 8.34 127.64 8 129 C-9.42546619 88.40046021 -12.23730504 42.47216363 0 0 Z " fill="#079FF3" transform="translate(334,492)"/>
<path d="M0 0 C1.81552978 0.61614355 3.6273653 1.24318228 5.4375 1.875 C6.95150391 2.39707031 6.95150391 2.39707031 8.49609375 2.9296875 C11 4 11 4 12 6 C13.83361968 6.95076576 15.67252048 7.89257311 17.53515625 8.78515625 C21.28951389 10.63556073 24.92627179 12.69376214 28.58203125 14.73046875 C31.03483117 16.10106817 31.03483117 16.10106817 34 17 C34 17.66 34 18.32 34 19 C35.65 19 37.3 19 39 19 C39 19.99 39 20.98 39 22 C41.97 22.99 44.94 23.98 48 25 C48 25.66 48 26.32 48 27 C49.32 27 50.64 27 52 27 C53.10181039 30.30543116 53.08420432 32.64595957 53.02172852 36.1237793 C53.00163223 37.38486008 52.98153595 38.64594086 52.96083069 39.94523621 C52.93363438 41.32156594 52.90632354 42.69789341 52.87890625 44.07421875 C52.85459998 45.48239881 52.83075667 46.89058692 52.80735779 48.29878235 C52.74456724 52.00274853 52.67548645 55.70657176 52.60510254 59.41040039 C52.5343736 63.19085182 52.46958394 66.9714045 52.40429688 70.75195312 C52.27534939 78.16808074 52.1397576 85.58406739 52 93 C53.32 93.66 54.64 94.32 56 95 C54.35 94.67 52.7 94.34 51 94 C51 72.55 51 51.1 51 29 C49.02 28.34 47.04 27.68 45 27 C43.74011049 26.38904031 42.49834676 25.73817774 41.28515625 25.0390625 C40.60976807 24.65556641 39.93437988 24.27207031 39.23852539 23.87695312 C38.52043701 23.46380859 37.80234863 23.05066406 37.0625 22.625 C28.65264343 17.86158034 20.11943724 13.36547049 11.52954102 8.93603516 C10.12466431 8.209729 10.12466431 8.209729 8.69140625 7.46875 C7.85810791 7.04013672 7.02480957 6.61152344 6.16625977 6.16992188 C4 5 4 5 1 3 C0.67 24.78 0.34 46.56 0 69 C-0.33 69 -0.66 69 -1 69 C-1.02312589 60.1511761 -1.04091634 51.30236253 -1.05181217 42.45351505 C-1.05704046 38.34505715 -1.06413713 34.23661986 -1.07543945 30.12817383 C-1.08627025 26.16653172 -1.09227724 22.20490948 -1.09487724 18.24325371 C-1.09673114 16.72851689 -1.1003511 15.21378121 -1.10573006 13.69905281 C-1.11294307 11.58458187 -1.11399083 9.47019406 -1.11352539 7.35571289 C-1.115746 6.14992081 -1.11796661 4.94412872 -1.12025452 3.70179749 C-1 1 -1 1 0 0 Z " fill="#1469E6" transform="translate(305,365)"/>
<path d="M0 0 C-16.47201067 6.90793238 -33.00768646 13.63649318 -49.625 20.1875 C-50.46967834 20.52073273 -51.31435669 20.85396545 -52.18463135 21.19729614 C-54.59392742 22.14716723 -57.00381588 23.09551249 -59.4140625 24.04296875 C-60.13783081 24.32786163 -60.86159912 24.61275452 -61.6072998 24.90628052 C-76.61384978 30.79065639 -86.90546876 26.2831941 -101.1875 20.5 C-103.01559853 19.77563156 -104.84437024 19.05295961 -106.67382812 18.33203125 C-111.12389718 16.57417506 -115.56419506 14.79352928 -120 13 C-119.34 12.34 -118.68 11.68 -118 11 C-108.79227515 13.52094991 -108.79227515 13.52094991 -105.3125 15.625 C-102.27789025 17.42936256 -99.47842732 17.65897771 -96 18 C-96 18.66 -96 19.32 -96 20 C-95.319375 20.103125 -94.63875 20.20625 -93.9375 20.3125 C-89.54117624 21.34142684 -85.56782407 23.25528357 -81.5 25.1875 C-75.9332898 26.99668081 -71.35191188 25.94614977 -66 24 C-65.01 24 -64.02 24 -63 24 C-63 23.34 -63 22.68 -63 22 C-61.35 22 -59.7 22 -58 22 C-58 21.34 -58 20.68 -58 20 C-56.35 20 -54.7 20 -53 20 C-52.67 19.34 -52.34 18.68 -52 18 C-48.65489648 16.37265234 -46.81164166 16 -43 16 C-43 15.34 -43 14.68 -43 14 C-41.35 14 -39.7 14 -38 14 C-38 13.34 -38 12.68 -38 12 C-36.7315625 11.5978125 -36.7315625 11.5978125 -35.4375 11.1875 C-31.99451243 10.05179344 -31.99451243 10.05179344 -28.75 8.5625 C-25.90365318 7.30583474 -23.0567472 6.40620825 -20.0625 5.5625 C-16.02408506 4.40076419 -12.4684519 2.88693742 -8.7890625 0.8671875 C-5.37948194 -0.78549129 -3.66294831 -1.22098277 0 0 Z " fill="#2674E6" transform="translate(590,491)"/>
<path d="M0 0 C0.60449165 29.7719889 -2.85424239 56.21731975 -14 84 C-14.58201172 85.45792969 -14.58201172 85.45792969 -15.17578125 86.9453125 C-15.44777344 87.62335938 -15.71976563 88.30140625 -16 89 C-16.99 88.67 -17.98 88.34 -19 88 C-18.34 86.35 -17.68 84.7 -17 83 C-16.34 83 -15.68 83 -15 83 C-15 81.35 -15 79.7 -15 78 C-14.34 78 -13.68 78 -13 78 C-12.814375 76.14375 -12.814375 76.14375 -12.625 74.25 C-12.30370982 71.03709824 -11.45858833 68.86150535 -10 66 C-9.6211059 64.55283502 -9.28842466 63.09287549 -9 61.625 C-8.44961116 58.96406497 -7.84808629 56.57106718 -6.9375 54 C-5.89392882 50.66057222 -5.54012304 47.52512735 -5.24609375 44.05078125 C-5 42 -5 42 -4 39 C-3.15922475 34.1328004 -2.88186615 29.47025771 -2.90234375 24.53515625 C-2.90446617 23.51789711 -2.90446617 23.51789711 -2.90663147 22.48008728 C-2.91217255 20.34084422 -2.92471347 18.20171075 -2.9375 16.0625 C-2.94252264 14.60091298 -2.9470842 13.13932431 -2.95117188 11.67773438 C-2.96212255 8.11845474 -2.97934555 4.55923809 -3 1 C-1 0 -1 0 0 0 Z " fill="#6145E5" transform="translate(753,522)"/>
<path d="M0 0 C1.5 1.375 1.5 1.375 3 3 C3 3.66 3 4.32 3 5 C3.62481262 4.98525131 4.24962524 4.97050262 4.89337158 4.95530701 C11.44796439 4.80184294 18.00271291 4.65733484 24.55761719 4.51782227 C26.99777149 4.46474036 29.43787869 4.40944176 31.87792969 4.35180664 C35.40289148 4.26894266 38.92795061 4.19428384 42.453125 4.12109375 C44.06637665 4.08054115 44.06637665 4.08054115 45.71221924 4.03916931 C52.87061163 3.90086817 59.87795617 4.27273783 67 5 C67 9 67 9 65.5 10.75 C65.005 11.1625 64.51 11.575 64 12 C63.01 11.67 62.02 11.34 61 11 C62.32 10.01 63.64 9.02 65 8 C33.32 7.505 33.32 7.505 1 7 C0.67 4.69 0.34 2.38 0 0 Z " fill="#7434E6" transform="translate(530,337)"/>
<path d="M0 0 C0.66 0.33 1.32 0.66 2 1 C1.58069818 4.98336728 1.12043335 8.58601034 0 12.4375 C-0.9729363 15.90358558 -1.38324664 19.07199552 -1.71875 22.63671875 C-2.00218152 25.01833087 -2.47252321 27.286261 -3 29.625 C-4.23293552 35.36358959 -4.42264561 41.12670642 -4.65625 46.97265625 C-4.7696875 47.97167969 -4.883125 48.97070312 -5 50 C-5.99 50.495 -5.99 50.495 -7 51 C-7.55380994 41.53908018 -6.68816862 32.59727928 -5.1875 23.25 C-5.02217773 22.20980713 -4.85685547 21.16961426 -4.68652344 20.09790039 C-3.53705801 13.26550822 -1.94935194 6.64734763 0 0 Z " fill="#169BF0" transform="translate(334,492)"/>
<path d="M0 0 C-2.29537077 3.44305615 -2.31629111 3.17785736 -6 4 C-8.05884307 4.98573256 -10.09950704 6.00994039 -12.125 7.0625 C-17.77882353 10 -17.77882353 10 -20 10 C-20 10.66 -20 11.32 -20 12 C-24.04453527 15.03340145 -28.15195009 15.93178561 -33 17 C-33 17.66 -33 18.32 -33 19 C-34.56119422 19.79423861 -36.12401964 20.58527123 -37.6875 21.375 C-38.55761719 21.81585938 -39.42773438 22.25671875 -40.32421875 22.7109375 C-42.84772799 23.92664268 -45.38737532 24.99260958 -48 26 C-46.62455995 21.87367986 -43.92223875 21.06564053 -40.25390625 19.19921875 C-39.5687645 18.84036087 -38.88362274 18.48150299 -38.17771912 18.11177063 C-35.97728454 16.96117368 -33.77034808 15.82379683 -31.5625 14.6875 C-28.68649055 13.19582045 -25.81369196 11.6980526 -22.94140625 10.19921875 C-22.24657135 9.83923798 -21.55173645 9.4792572 -20.83584595 9.10836792 C-16.09867881 6.63632021 -11.54835399 3.96486018 -7.09350586 1.00708008 C-4.58489734 -0.19968495 -2.7501372 -0.18915651 0 0 Z " fill="#7A2CE6" transform="translate(495,218)"/>
<path d="M0 0 C0.495 0.99 0.495 0.99 1 2 C-0.98 2.66 -2.96 3.32 -5 4 C-5 4.66 -5 5.32 -5 6 C-11.5 10 -11.5 10 -16 10 C-16 10.66 -16 11.32 -16 12 C-17.41042956 12.84384675 -18.82864132 13.67469496 -20.25 14.5 C-21.03890625 14.9640625 -21.8278125 15.428125 -22.640625 15.90625 C-25 17 -25 17 -29 17 C-29 17.66 -29 18.32 -29 19 C-30.76371818 20.03307771 -32.53625033 21.05112049 -34.3125 22.0625 C-35.29863281 22.63097656 -36.28476562 23.19945312 -37.30078125 23.78515625 C-40 25 -40 25 -43 24 C-40.096996 21.71698959 -37.13786322 19.89251857 -33.88671875 18.14453125 C-32.89220703 17.60787842 -31.89769531 17.07122559 -30.87304688 16.51831055 C-29.82181641 15.95539307 -28.77058594 15.39247559 -27.6875 14.8125 C-26.61693359 14.23604736 -25.54636719 13.65959473 -24.44335938 13.06567383 C-21.29762553 11.37325576 -18.14938381 9.68561457 -15 8 C-14.14486816 7.54206055 -13.28973633 7.08412109 -12.40869141 6.61230469 C-8.27633826 4.40086701 -4.14042633 2.19628384 0 0 Z " fill="#3069E6" transform="translate(320,311)"/>
<path d="M0 0 C-17.25736336 7.20264278 -34.54740714 14.2801195 -52 21 C-52 20.01 -52 19.02 -52 18 C-48.62902617 16.50178941 -46.79557881 16 -43 16 C-43 15.34 -43 14.68 -43 14 C-41.35 14 -39.7 14 -38 14 C-38 13.34 -38 12.68 -38 12 C-37.154375 11.731875 -36.30875 11.46375 -35.4375 11.1875 C-31.99451243 10.05179344 -31.99451243 10.05179344 -28.75 8.5625 C-25.90365318 7.30583474 -23.0567472 6.40620825 -20.0625 5.5625 C-16.02408506 4.40076419 -12.4684519 2.88693742 -8.7890625 0.8671875 C-5.37948194 -0.78549129 -3.66294831 -1.22098277 0 0 Z " fill="#2D5EE3" transform="translate(590,491)"/>
<path d="M0 0 C0.66 0 1.32 0 2 0 C1.43763872 4.70362087 0.5103547 8.9073057 -1.06640625 13.37109375 C-1.46923828 14.52158203 -1.87207031 15.67207031 -2.28710938 16.85742188 C-2.70798828 18.03884766 -3.12886719 19.22027344 -3.5625 20.4375 C-3.98724609 21.64599609 -4.41199219 22.85449219 -4.84960938 24.09960938 C-5.89398013 27.06843859 -6.94621479 30.03449939 -8 33 C-4.37 30.36 -0.74 27.72 3 25 C3.66 25.33 4.32 25.66 5 26 C0.84703191 29.68606635 -3.30834891 33.02480663 -8 36 C-8.66 35.67 -9.32 35.34 -10 35 C-10.125 29.25 -10.125 29.25 -9 27 C-8.34 27 -7.68 27 -7 27 C-6.731875 25.783125 -6.46375 24.56625 -6.1875 23.3125 C-5.79179245 21.54163855 -5.3959422 19.77080899 -5 18 C-4.75894531 16.90558594 -4.51789063 15.81117188 -4.26953125 14.68359375 C-4.01558594 13.55050781 -3.76164062 12.41742188 -3.5 11.25 C-3.2628125 10.18265625 -3.025625 9.1153125 -2.78125 8.015625 C-2.05607826 5.21646208 -1.13997907 2.65339955 0 0 Z " fill="#375EE5" transform="translate(466,412)"/>
<path d="M0 0 C0.763125 0.309375 1.52625 0.61875 2.3125 0.9375 C4.18789677 1.67893593 6.08684652 2.36228217 8 3 C8 3.66 8 4.32 8 5 C8.78375 5.103125 9.5675 5.20625 10.375 5.3125 C13 6 13 6 15 9 C17.56282742 9.72965366 17.56282742 9.72965366 20 10 C20 10.66 20 11.32 20 12 C22.475 12.495 22.475 12.495 25 13 C25 13.99 25 14.98 25 16 C25.99 16 26.98 16 28 16 C28 16.66 28 17.32 28 18 C28.7425 18.2475 29.485 18.495 30.25 18.75 C33.26350999 20.11977727 34.78369093 21.5692094 37 24 C37.7425 24.7425 38.485 25.485 39.25 26.25 C39.8275 26.8275 40.405 27.405 41 28 C37.2353067 26.64001296 34.20497838 24.9247769 30.9375 22.62109375 C29.98109619 21.95086182 29.02469238 21.28062988 28.03930664 20.59008789 C27.03633545 19.87973389 26.03336426 19.16937988 25 18.4375 C22.93633587 16.98678291 20.8725345 15.53626101 18.80859375 14.0859375 C17.81327637 13.38436523 16.81795898 12.68279297 15.79248047 11.95996094 C13.40409035 10.28361928 11.00671965 8.62297481 8.59765625 6.9765625 C7.98599609 6.55834229 7.37433594 6.14012207 6.74414062 5.70922852 C5.17537603 4.63947136 3.60531587 3.57161479 2.03515625 2.50390625 C1.36355469 2.00761719 0.69195313 1.51132812 0 1 C0 0.67 0 0.34 0 0 Z " fill="#148BEB" transform="translate(612,739)"/>
<path d="M0 0 C0.33 0 0.66 0 1 0 C0.92739637 15.82759237 -5.86744282 31.64720661 -12 46 C-12.99 45.67 -13.98 45.34 -15 45 C-14.34 43.35 -13.68 41.7 -13 40 C-12.34 40 -11.68 40 -11 40 C-11 38.35 -11 36.7 -11 35 C-10.34 35 -9.68 35 -9 35 C-8.87625 33.7625 -8.7525 32.525 -8.625 31.25 C-8.30370982 28.03709824 -7.45858833 25.86150535 -6 23 C-5.6211059 21.55283502 -5.28842466 20.09287549 -5 18.625 C-4.23878328 14.97475604 -3.22954047 11.52468269 -2 8 C-1.64830932 6.67139075 -1.31229724 5.33841672 -1 4 C-0.5 2 -0.5 2 0 0 Z " fill="#444DE3" transform="translate(749,565)"/>
<path d="M0 0 C-1.52362205 3.04724409 -3.85024031 3.33063221 -6.9765625 4.56640625 C-7.5800351 4.80536118 -8.18350769 5.0443161 -8.80526733 5.29051208 C-10.08675932 5.79567734 -11.36965462 6.29729477 -12.65380859 6.7956543 C-14.60043503 7.55294358 -16.54053393 8.32536533 -18.48046875 9.09960938 C-19.72880037 9.58947613 -20.9774881 10.07843656 -22.2265625 10.56640625 C-23.35658691 11.00927979 -24.48661133 11.45215332 -25.65087891 11.90844727 C-29.10954769 13.03570402 -32.39132424 13.59194073 -36 14 C-33.32469742 10.73584006 -30.10681847 9.60404511 -26.25 8.046875 C-25.59547852 7.78239563 -24.94095703 7.51791626 -24.26660156 7.24542236 C-22.88631775 6.69033863 -21.50443779 6.13920955 -20.12109375 5.59179688 C-18.00246535 4.75097842 -15.89184803 3.89199668 -13.78125 3.03125 C-12.43794451 2.49367958 -11.09420829 1.95718395 -9.75 1.421875 C-8.52796875 0.93299805 -7.3059375 0.44412109 -6.046875 -0.05957031 C-3 -1 -3 -1 0 0 Z " fill="#3A67E5" transform="translate(605,509)"/>
<path d="M0 0 C0 0.66 0 1.32 0 2 C-0.66644531 2.23074219 -1.33289063 2.46148437 -2.01953125 2.69921875 C-9.55929376 5.36713471 -17.00478349 8.29782574 -24.05078125 12.109375 C-27.27106843 13.58076874 -30.49484646 13.64948465 -34 14 C-34 14.66 -34 15.32 -34 16 C-35.32 16.33 -36.64 16.66 -38 17 C-38 16.01 -38 15.02 -38 14 C-28 10 -18 6 -8 2 C-6.63717896 1.41774658 -6.63717896 1.41774658 -5.24682617 0.82373047 C-3 0 -3 0 0 0 Z " fill="#4356E3" transform="translate(645,492)"/>
<path d="M0 0 C2.28472555 2.09649532 3.67587197 4.01527954 5 6.8125 C5.33773438 7.51246094 5.67546875 8.21242188 6.0234375 8.93359375 C6.34570312 9.61550781 6.66796875 10.29742188 7 11 C9.02777736 15.3396311 9.02777736 15.3396311 12 19 C13.12405212 20.75827801 14.2253733 22.53115493 15.3125 24.3125 C17.33700024 27.55170038 19.09961435 30.09961435 21.8125 32.8125 C24.3741204 35.3741204 25.11158077 37.52708848 26 41 C15.59459651 31.24493423 8.7610471 19.42450231 2 7 C1.43321533 5.97302002 1.43321533 5.97302002 0.85498047 4.92529297 C0 3 0 3 0 0 Z " fill="#0BA0F4" transform="translate(344,623)"/>
<path d="M0 0 C0.99 0.33 1.98 0.66 3 1 C3.9590625 1.1546875 3.9590625 1.1546875 4.9375 1.3125 C7 2 7 2 8.6171875 3.69140625 C11.8386723 6.81254972 15.46070737 9.14709699 19.1875 11.625 C20.64210112 12.59218885 22.09406851 13.56335415 23.54296875 14.5390625 C24.18258545 14.96396973 24.82220215 15.38887695 25.48120117 15.82666016 C27 17 27 17 28 19 C24.44438823 17.70907183 21.63033661 16.18306246 18.6015625 13.92578125 C17.79203125 13.34119141 16.9825 12.75660156 16.1484375 12.15429688 C14.46562417 10.92605154 12.79107423 9.68640417 11.125 8.43554688 C6.01623507 4.59656047 6.01623507 4.59656047 -0.1015625 4.10546875 C-1.53628906 4.54826172 -1.53628906 4.54826172 -3 5 C-3 4.01 -3 3.02 -3 2 C-2.01 2 -1.02 2 0 2 C0 1.34 0 0.68 0 0 Z " fill="#108AEB" transform="translate(584,720)"/>
<path d="M0 0 C-1.16282033 3.48846099 -1.63109739 3.64041683 -4.74609375 5.26171875 C-5.50083984 5.65810547 -6.25558594 6.05449219 -7.03320312 6.46289062 C-7.82662109 6.86701172 -8.62003906 7.27113281 -9.4375 7.6875 C-10.22705078 8.10322266 -11.01660156 8.51894531 -11.83007812 8.94726562 C-17.70997537 12 -17.70997537 12 -20 12 C-20.33 14.97 -20.66 17.94 -21 21 C-21.33 21 -21.66 21 -22 21 C-22.25 13.375 -22.25 13.375 -20 10 C-17.375 9.3125 -17.375 9.3125 -15 9 C-15 8.01 -15 7.02 -15 6 C-13.88625 5.71125 -12.7725 5.4225 -11.625 5.125 C-7.99708908 4.30758671 -7.99708908 4.30758671 -6 2 C-2.44444444 0 -2.44444444 0 0 0 Z " fill="#7E2BE4" transform="translate(688,382)"/>
<path d="M0 0 C1.65 0 3.3 0 5 0 C5.33 0.99 5.66 1.98 6 3 C8.24436655 4.44280707 10.0559976 5.01041816 12.6875 5.5 C13.450625 5.665 14.21375 5.83 15 6 C15.33 6.66 15.66 7.32 16 8 C19.63 7.67 23.26 7.34 27 7 C26.67 7.66 26.34 8.32 26 9 C21.5116324 10.49612253 17.67619055 10.89637433 13 10 C2.17911647 4.35823293 2.17911647 4.35823293 0 0 Z " fill="#0F87EA" transform="translate(659,771)"/>
<path d="M0 0 C0.66 0.33 1.32 0.66 2 1 C-1.40940601 4.60995931 -4.82502043 7.32801307 -9 10 C-10.23006639 10.93631919 -11.45922151 11.87383665 -12.6875 12.8125 C-13.780625 13.534375 -14.87375 14.25625 -16 15 C-16.99 14.67 -17.98 14.34 -19 14 C-16.39682213 12.04034952 -13.79228758 10.08251018 -11.1875 8.125 C-10.44951172 7.56941406 -9.71152344 7.01382812 -8.95117188 6.44140625 C-8.23896484 5.90644531 -7.52675781 5.37148438 -6.79296875 4.8203125 C-6.1383667 4.32805176 -5.48376465 3.83579102 -4.80932617 3.32861328 C-3.23787519 2.17467505 -1.62218477 1.08145651 0 0 Z " fill="#3F55E4" transform="translate(500,415)"/>
<path d="M0 0 C0.66 0.33 1.32 0.66 2 1 C-1.41210201 2.98711598 -4.83041936 4.96328601 -8.25 6.9375 C-9.21808594 7.50146484 -10.18617188 8.06542969 -11.18359375 8.64648438 C-12.11816406 9.18466797 -13.05273438 9.72285156 -14.015625 10.27734375 C-15.30388184 11.02359009 -15.30388184 11.02359009 -16.61816406 11.78491211 C-18.77633041 12.8858955 -20.63383748 13.53778404 -23 14 C-22 11 -22 11 -19.125 9.3125 C-16 8 -16 8 -13 8 C-13 7.34 -13 6.68 -13 6 C-11.96875 5.566875 -10.9375 5.13375 -9.875 4.6875 C-7.39459275 3.63596832 -5.07902861 2.51344908 -2.6875 1.25 C-1.800625 0.8375 -0.91375 0.425 0 0 Z " fill="#8620E4" transform="translate(711,369)"/>
<path d="M0 0 C0 0.33 0 0.66 0 1 C-1.258125 1.061875 -2.51625 1.12375 -3.8125 1.1875 C-8.90752153 1.72593287 -12.90146805 3.62956027 -17.46875 5.85546875 C-20.29439819 7.13311523 -22.90948411 7.74941763 -26 8 C-18.77167811 0.15013451 -10.17951929 -0.71799117 0 0 Z " fill="#8A1BE6" transform="translate(517,211)"/>
<path d="M0 0 C-1.1262207 1.48168945 -1.1262207 1.48168945 -3 3 C-5.72729492 3.34057617 -5.72729492 3.34057617 -8.98046875 3.29296875 C-10.14384766 3.28330078 -11.30722656 3.27363281 -12.50585938 3.26367188 C-13.72080078 3.23853516 -14.93574219 3.21339844 -16.1875 3.1875 C-17.41404297 3.17396484 -18.64058594 3.16042969 -19.90429688 3.14648438 C-22.93663664 3.11108741 -25.96809996 3.0617076 -29 3 C-29 2.67 -29 2.34 -29 2 C-19.27088552 0.60120562 -9.85816251 -0.30384747 0 0 Z " fill="#1DA7F2" transform="translate(541,729)"/>
<path d="M0 0 C1.65 0 3.3 0 5 0 C3.35834371 3.28331258 -0.15821012 3.89120045 -3.4375 5.125 C-4.5193457 5.53419678 -4.5193457 5.53419678 -5.62304688 5.95166016 C-11.16598535 7.93676525 -16.10158382 8.76565979 -22 8 C-22 7.67 -22 7.34 -22 7 C-20.80375 6.87625 -19.6075 6.7525 -18.375 6.625 C-14.71657556 6.17821896 -11.48422672 5.21542793 -8 4 C-7.01 4 -6.02 4 -5 4 C-5 3.34 -5 2.68 -5 2 C-3.35 2 -1.7 2 0 2 C0 1.34 0 0.68 0 0 Z " fill="#2267E4" transform="translate(532,511)"/>
<path d="M0 0 C0.66 0 1.32 0 2 0 C2.53341607 6.26763879 0.8156571 10.44784083 -2 16 C-2.33 16.66 -2.66 17.32 -3 18 C-3.66 18 -4.32 18 -5 18 C-5 18.66 -5 19.32 -5 20 C-5.99 19.67 -6.98 19.34 -8 19 C-7.59007812 18.46632813 -7.18015625 17.93265625 -6.7578125 17.3828125 C-2.66812346 11.72769225 -0.83742876 6.91600651 0 0 Z " fill="#603AE3" transform="translate(690,455)"/>
<path d="M0 0 C0.66 0.33 1.32 0.66 2 1 C-2.75 4 -2.75 4 -5 4 C-5.33 4.99 -5.66 5.98 -6 7 C-8.65234375 8.421875 -8.65234375 8.421875 -11.9375 9.75 C-13.01902344 10.19859375 -14.10054688 10.6471875 -15.21484375 11.109375 C-18 12 -18 12 -20 11 C-16.7155241 9.13287101 -13.42136129 7.28355226 -10.125 5.4375 C-8.71927734 4.63795898 -8.71927734 4.63795898 -7.28515625 3.82226562 C-6.38925781 3.32275391 -5.49335938 2.82324219 -4.5703125 2.30859375 C-3.74289551 1.84251709 -2.91547852 1.37644043 -2.06298828 0.89624023 C-1.38220215 0.60048096 -0.70141602 0.30472168 0 0 Z " fill="#3257E6" transform="translate(342,299)"/>
<path d="M0 0 C1.953125 0.7109375 1.953125 0.7109375 4 2 C4.609375 4.1640625 4.609375 4.1640625 4.75 6.625 C4.80671875 7.44226563 4.8634375 8.25953125 4.921875 9.1015625 C4.96054687 10.04128906 4.96054687 10.04128906 5 11 C2.53721199 8.53721199 2.00228745 6.29323018 1 3 C-0.98 7.455 -0.98 7.455 -3 12 C-4.21386936 8.35839192 -3.6674695 7.66834531 -2.0625 4.3125 C-1.49208984 3.10013672 -1.49208984 3.10013672 -0.91015625 1.86328125 C-0.60980469 1.24839844 -0.30945313 0.63351562 0 0 Z " fill="#6E2AE3" transform="translate(511,282)"/>
<path d="M0 0 C0.99 0.33 1.98 0.66 3 1 C3 1.66 3 2.32 3 3 C3.99 3.33 4.98 3.66 6 4 C7.71875 5.70703125 7.71875 5.70703125 9.5 7.8125 C10.0878125 8.49957031 10.675625 9.18664062 11.28125 9.89453125 C12.91149424 11.89158044 14.47060322 13.9250562 16 16 C12.19827839 14.42626408 9.75658012 12.02378358 6.875 9.125 C6.00617188 8.26132812 5.13734375 7.39765625 4.2421875 6.5078125 C2.31482046 4.35211626 1.09484839 2.64485847 0 0 Z " fill="#14A3F3" transform="translate(370,664)"/>
<path d="M0 0 C0.09507063 6.43311296 0.15316726 12.65758005 -1 19 C-1.33 19 -1.66 19 -2 19 C-2.89604368 12.95170514 -3.11269443 7.1105424 -3 1 C-1 0 -1 0 0 0 Z " fill="#7C5AE8" transform="translate(753,522)"/>
<path d="M0 0 C4.40675924 0.55084491 8.17953933 1.72388318 12.265625 3.37890625 C14.00677945 4.11238074 14.00677945 4.11238074 16 4 C16 4.66 16 5.32 16 6 C17.32 6.66 18.64 7.32 20 8 C15.15888235 7.41161801 11.03928805 5.92346884 6.625 3.9375 C5.98433594 3.65583984 5.34367187 3.37417969 4.68359375 3.08398438 C3.11970341 2.39540579 1.55946059 1.69855289 0 1 C0 0.67 0 0.34 0 0 Z " fill="#1677E6" transform="translate(379,467)"/>
<path d="M0 0 C0.66 0.33 1.32 0.66 2 1 C1.57847656 1.55429687 1.15695312 2.10859375 0.72265625 2.6796875 C0.17480469 3.40414063 -0.37304688 4.12859375 -0.9375 4.875 C-1.48277344 5.59429687 -2.02804687 6.31359375 -2.58984375 7.0546875 C-4.03964624 8.94357079 -4.03964624 8.94357079 -5 11 C-5.66 11 -6.32 11 -7 11 C-7.33 11.99 -7.66 12.98 -8 14 C-7.84036991 7.61479646 -4.21875117 4.33991635 0 0 Z " fill="#0E86EA" transform="translate(283,435)"/>
<path d="M0 0 C1.32 0.33 2.64 0.66 4 1 C4.144375 2.051875 4.28875 3.10375 4.4375 4.1875 C4.87526966 7.15460549 5.37804866 10.06794366 6 13 C5.01 12.67 4.02 12.34 3 12 C2.05078125 10.0390625 2.05078125 10.0390625 1.3125 7.625 C1.06113281 6.83351563 0.80976562 6.04203125 0.55078125 5.2265625 C0 3 0 3 0 0 Z " fill="#6E38E4" transform="translate(524,319)"/>
<path d="M0 0 C-2.3313452 3.4970178 -2.28811193 3.09710831 -6 4 C-7.22255687 4.66187642 -8.43005168 5.35199019 -9.625 6.0625 C-13 8 -13 8 -15 8 C-13.79883731 4.39651192 -12.98158719 4.0941532 -9.75 2.3125 C-8.98171875 1.87550781 -8.2134375 1.43851563 -7.421875 0.98828125 C-4.76304991 -0.09669092 -2.84367675 -0.18655326 0 0 Z " fill="#892BE8" transform="translate(495,218)"/>
<path d="M0 0 C-1.78524649 1.19713017 -3.5784028 2.38247279 -5.375 3.5625 C-6.87160156 4.55443359 -6.87160156 4.55443359 -8.3984375 5.56640625 C-9.25695312 6.03949219 -10.11546875 6.51257813 -11 7 C-11.66 6.67 -12.32 6.34 -13 6 C-13 5.34 -13 4.68 -13 4 C-11.40233897 3.13372601 -9.79660056 2.28233535 -8.1875 1.4375 C-7.29417969 0.96183594 -6.40085937 0.48617188 -5.48046875 -0.00390625 C-3 -1 -3 -1 0 0 Z " fill="#5D48E5" transform="translate(684,476)"/>
<path d="M0 0 C0 0.33 0 0.66 0 1 C-5.01608525 2.0176403 -9.78608306 2.11856434 -14.875 2.0625 C-15.65875 2.05798828 -16.4425 2.05347656 -17.25 2.04882812 C-19.16670014 2.03714093 -21.08336048 2.01920908 -23 2 C-23 1.67 -23 1.34 -23 1 C-21.64455078 0.90912109 -21.64455078 0.90912109 -20.26171875 0.81640625 C-18.49248047 0.69072266 -18.49248047 0.69072266 -16.6875 0.5625 C-14.92986328 0.44068359 -14.92986328 0.44068359 -13.13671875 0.31640625 C-3.7265625 -0.6328125 -3.7265625 -0.6328125 0 0 Z " fill="#048DED" transform="translate(555,729)"/>
<path d="M0 0 C2.61623814 4.36039691 3.30800296 8.93198011 2.5625 13.9375 C2.376875 14.618125 2.19125 15.29875 2 16 C1.67 16 1.34 16 1 16 C0.63705686 13.8973294 0.28493028 11.79278943 -0.0625 9.6875 C-0.35833984 7.92986328 -0.35833984 7.92986328 -0.66015625 6.13671875 C-1 3 -1 3 0 0 Z " fill="#743FE4" transform="translate(747,494)"/>
<path d="M0 0 C0.66 0 1.32 0 2 0 C1.54548816 1.73017508 1.08621143 3.45909877 0.625 5.1875 C0.36976563 6.15042969 0.11453125 7.11335938 -0.1484375 8.10546875 C-0.94766296 10.82210207 -1.9031362 13.39137175 -3 16 C-4.10844919 12.67465243 -3.84454356 10.37817425 -3 7 C-2.34 7 -1.68 7 -1 7 C-0.67 4.69 -0.34 2.38 0 0 Z " fill="#3D47E2" transform="translate(476,383)"/>
<path d="M0 0 C0.33 0 0.66 0 1 0 C0.22095672 11.52164009 0.22095672 11.52164009 -2 17 C-3.85002358 12.06660378 -2.63787457 6.8010576 -0.9375 2 C-0.4734375 1.01 -0.4734375 1.01 0 0 Z " fill="#4B3DE2" transform="translate(749,565)"/>
<path d="M0 0 C0.66 0.99 1.32 1.98 2 3 C0.23585377 3.72482748 -1.53662904 4.42939296 -3.3125 5.125 C-4.79169922 5.71667969 -4.79169922 5.71667969 -6.30078125 6.3203125 C-7.19152344 6.54460937 -8.08226562 6.76890625 -9 7 C-9.99 6.34 -10.98 5.68 -12 5 C-11.13375 4.731875 -10.2675 4.46375 -9.375 4.1875 C-6.08208036 3.02888013 -3.08872125 1.61790161 0 0 Z " fill="#3967E5" transform="translate(564,498)"/>
<path d="M0 0 C0 0.66 0 1.32 0 2 C2.31 2 4.62 2 7 2 C7 2.33 7 2.66 7 3 C1.72 3 -3.56 3 -9 3 C-9 2.67 -9 2.34 -9 2 C-3.375 0 -3.375 0 0 0 Z " fill="#0297EF" transform="translate(517,728)"/>
<path d="M0 0 C3.3 1.65 6.6 3.3 10 5 C9.34 5.66 8.68 6.32 8 7 C7.34 7 6.68 7 6 7 C5.7525 6.360625 5.505 5.72125 5.25 5.0625 C4.18437567 2.81258459 4.18437567 2.81258459 1.875 2.25 C0.946875 2.12625 0.946875 2.12625 0 2 C0 1.34 0 0.68 0 0 Z " fill="#9B13E5" transform="translate(670,293)"/>
<path d="M0 0 C-3.66291938 2.47785723 -6.6109185 3.48964169 -11 4 C-9.71264403 1.42528807 -8.71510189 1.29583343 -6.0625 0.3125 C-5.35222656 0.04050781 -4.64195312 -0.23148438 -3.91015625 -0.51171875 C-2 -1 -2 -1 0 0 Z " fill="#1D6AE6" transform="translate(542,534)"/>
<path d="M0 0 C2 3 2 3 1.625 5.6875 C1.41875 6.450625 1.2125 7.21375 1 8 C0.01 8.33 -0.98 8.66 -2 9 C-1.34 6.03 -0.68 3.06 0 0 Z " fill="#5954E4" transform="translate(745,579)"/>
<path d="M0 0 C0.99 0.66 1.98 1.32 3 2 C-0.465 3.485 -0.465 3.485 -4 5 C-4.33 4.01 -4.66 3.02 -5 2 C-2.6875 0.875 -2.6875 0.875 0 0 Z " fill="#5658E4" transform="translate(649,489)"/>
<path d="M0 0 C1.46726798 3.81489674 0.43336419 6.29011622 -1 10 C-1.66 9.67 -2.32 9.34 -3 9 C-2.44271087 5.65626525 -1.64826111 2.96687001 0 0 Z " fill="#3C59E5" transform="translate(465,418)"/>
<path d="M0 0 C0.66 0.33 1.32 0.66 2 1 C-1.465 3.97 -1.465 3.97 -5 7 C-5.66 6.67 -6.32 6.34 -7 6 C-4.69 4.02 -2.38 2.04 0 0 Z " fill="#6032E3" transform="translate(572,362)"/>
</svg>
