<?xml version="1.0" standalone="no"?>
<!DOCTYPE svg PUBLIC "-//W3C//DTD SVG 20010904//EN"
 "http://www.w3.org/TR/2001/REC-SVG-20010904/DTD/svg10.dtd">
<svg version="1.0" xmlns="http://www.w3.org/2000/svg"
 width="1024.000000pt" height="1024.000000pt" viewBox="0 0 1024.000000 1024.000000"
 preserveAspectRatio="xMidYMid meet">

<g transform="translate(0.000000,1024.000000) scale(0.100000,-0.100000)"
fill="#000000" stroke="none">
<path d="M5060 7673 c-18 -7 -177 -85 -205 -101 -11 -6 -85 -43 -165 -83 -136
-67 -302 -151 -790 -400 -113 -57 -207 -106 -210 -109 -3 -3 -70 -38 -150 -78
-349 -175 -476 -244 -492 -265 -41 -52 -11 -134 57 -158 l35 -13 2 -216 c4
-282 -2 -522 -13 -535 -4 -6 -4 -17 1 -25 13 -20 12 -30 0 -30 -5 0 -10 9 -10
20 0 23 -7 25 -23 8 -38 -40 -47 -69 -46 -140 1 -40 4 -59 6 -43 7 57 13 62
34 36 19 -23 19 -23 19 -2 0 14 4 20 12 15 7 -5 9 0 6 14 -4 13 0 23 9 26 10
4 13 1 8 -13 -4 -14 1 -22 22 -29 28 -10 28 -10 -9 -11 -36 -1 -49 -13 -29
-25 5 -4 8 -14 6 -24 -2 -9 -4 -25 -4 -34 -1 -10 -6 -18 -12 -18 -5 0 -7 4 -4
10 3 6 -1 7 -9 4 -31 -12 -17 -43 30 -67 42 -22 164 -18 187 5 16 16 16 17 -3
23 -11 3 -20 11 -20 16 0 6 5 7 11 3 7 -4 7 1 -1 16 -11 20 -10 22 4 17 9 -4
16 -2 16 4 0 5 10 13 23 18 18 7 23 5 28 -13 4 -18 7 -15 18 17 14 42 7 147
-10 147 -5 0 -9 5 -9 12 0 6 -18 29 -40 50 l-40 40 0 309 c0 349 -3 337 75
300 25 -12 49 -21 55 -21 5 0 10 -4 10 -10 0 -5 9 -10 20 -10 11 0 20 -4 20
-10 0 -5 9 -10 19 -10 11 0 23 -5 26 -10 3 -6 62 -37 130 -70 l124 -59 3 -313
c3 -290 4 -315 22 -341 20 -29 109 -77 143 -77 11 0 23 -4 28 -9 6 -5 39 -18
75 -31 36 -12 81 -28 100 -37 61 -26 73 -31 165 -63 50 -18 131 -48 180 -67
111 -43 165 -63 280 -103 93 -32 105 -37 167 -64 20 -9 43 -16 51 -16 9 0 18
-4 21 -9 9 -13 131 -34 158 -26 32 9 156 55 195 71 17 8 37 14 45 14 8 0 18 4
23 9 6 5 38 19 73 30 34 12 79 28 100 35 20 8 78 29 127 46 50 18 106 39 125
47 19 8 44 19 55 23 11 5 67 25 125 45 167 59 213 75 250 91 19 9 59 25 89 37
97 39 95 31 101 390 l5 312 271 135 c148 74 307 152 352 173 45 22 91 50 102
64 28 35 26 95 -2 127 -13 14 -93 61 -178 104 -85 44 -245 125 -355 182 -594
305 -1280 650 -1294 650 -5 0 -11 3 -13 8 -3 7 -105 58 -161 81 -29 11 -120
14 -147 4z m80 -734 c0 -6 6 -25 14 -42 13 -28 88 -234 136 -372 l18 -50 263
-10 c165 -6 264 -14 266 -20 2 -6 -27 -33 -64 -60 -38 -27 -73 -54 -79 -60 -6
-6 -66 -53 -133 -105 -66 -51 -121 -99 -121 -106 0 -20 25 -111 54 -194 14
-41 34 -109 45 -150 11 -41 25 -92 31 -113 6 -22 9 -41 7 -44 -6 -6 -45 19
-264 165 -111 74 -179 113 -191 110 -15 -4 -209 -127 -237 -151 -26 -22 -196
-127 -206 -127 -6 0 -9 6 -6 14 3 8 9 32 13 53 4 21 10 43 14 48 4 6 15 42 25
80 9 39 21 79 26 90 5 11 23 65 39 120 26 93 27 101 12 115 -9 9 -98 80 -197
159 -99 79 -181 149 -183 156 -4 18 88 25 323 25 l202 0 16 53 c15 52 51 153
67 192 4 11 15 43 25 70 32 97 64 165 75 165 6 0 10 -5 10 -11z m-1802 -1257
c2 -7 -2 -10 -12 -6 -9 3 -16 11 -16 16 0 13 23 5 28 -10z"/>
<path d="M6668 5763 l-3 -298 -27 -50 c-43 -81 -81 -110 -213 -165 -11 -5 -38
-14 -60 -20 -22 -6 -49 -15 -60 -20 -11 -4 -47 -18 -80 -30 -65 -24 -129 -48
-160 -61 -11 -4 -72 -27 -135 -50 -63 -23 -137 -50 -165 -61 -27 -11 -60 -22
-73 -25 -12 -3 -25 -9 -28 -14 -3 -5 -13 -9 -22 -9 -9 -1 -35 -9 -57 -20 -22
-11 -45 -19 -51 -20 -6 0 -33 -9 -60 -19 -85 -34 -228 -88 -265 -100 -54 -17
-123 -13 -187 10 -31 11 -88 31 -127 45 -38 13 -79 28 -90 33 -11 6 -54 22
-95 37 -131 47 -139 50 -146 57 -4 4 -14 7 -22 7 -8 0 -30 7 -50 16 -65 28
-76 32 -172 64 -52 18 -105 36 -117 41 -54 22 -70 28 -103 39 -19 7 -49 19
-67 26 -17 8 -40 14 -51 14 -12 0 -24 5 -27 10 -3 6 -14 10 -23 10 -9 0 -30 7
-46 15 -31 16 -62 13 -51 -6 5 -7 -4 -9 -24 -7 -17 2 -31 8 -31 13 1 6 9 9 20
7 10 -2 21 2 25 8 3 5 0 10 -8 10 -22 0 -93 40 -129 72 -17 15 -34 25 -39 23
-12 -8 -41 -104 -34 -115 3 -5 2 -10 -3 -10 -14 0 -23 -43 -12 -54 7 -7 10 -6
10 1 0 8 8 8 29 0 17 -6 27 -16 24 -24 -6 -17 5 -17 21 0 7 7 11 18 9 24 -3 9
3 9 23 -2 30 -15 40 -13 29 4 -3 6 -11 9 -16 6 -5 -4 -9 1 -9 9 0 21 5 20 29
-5 18 -19 18 -22 3 -40 -14 -16 -17 -17 -25 -4 -4 9 -12 13 -18 10 -5 -4 2
-16 16 -29 14 -13 25 -32 25 -44 0 -17 -6 -20 -40 -17 -42 3 -46 -1 -30 -25 6
-9 13 -11 18 -5 11 15 35 18 26 4 -5 -8 -2 -10 8 -7 8 4 15 0 15 -8 0 -7 -5
-11 -10 -7 -5 3 -6 -3 -3 -15 7 -20 -5 -34 -32 -38 -26 -4 -27 -16 -2 -14 52
4 81 0 79 -12 -1 -7 -1 -18 0 -25 1 -16 49 -63 63 -63 6 0 17 -8 24 -17 9 -14
10 -21 1 -32 -10 -12 -9 -14 5 -8 9 3 19 1 22 -6 2 -7 5 -3 5 7 1 19 1 19 14
1 8 -10 19 -15 24 -12 6 4 16 0 23 -8 11 -13 10 -14 -4 -9 -9 3 -16 2 -16 -2
0 -14 14 -29 30 -32 25 -6 39 -23 33 -39 -5 -12 -1 -11 16 3 15 13 17 20 9 23
-14 5 -37 31 -38 43 0 4 11 -4 25 -17 13 -14 29 -25 35 -25 6 0 20 -9 32 -20
12 -11 32 -20 44 -20 13 0 26 -4 29 -10 3 -5 13 -10 21 -10 17 0 19 27 2 32
-6 2 -8 10 -4 17 6 9 15 5 33 -14 27 -26 45 -27 23 0 -7 8 -8 15 -2 15 5 0 12
-7 16 -15 3 -8 13 -15 22 -15 10 0 14 -5 10 -16 -3 -8 -2 -13 2 -10 24 14 62
13 74 -2 12 -15 11 -16 -4 -3 -26 20 -22 0 5 -24 12 -12 34 -20 49 -20 15 1
30 -5 32 -12 6 -15 -20 -18 -29 -3 -3 6 -11 10 -16 10 -6 0 -7 -5 -3 -12 5 -8
0 -9 -14 -6 -12 4 -22 2 -22 -3 0 -5 4 -9 9 -9 5 0 22 -5 38 -12 15 -6 36 -10
46 -9 9 1 31 -7 47 -19 34 -25 42 -11 8 14 -20 15 -19 15 9 0 18 -10 30 -21
27 -26 -3 -4 2 -5 10 -2 9 3 16 2 16 -4 0 -5 9 -12 20 -15 15 -4 18 -10 13
-24 -5 -14 -2 -13 13 4 14 17 23 20 34 13 13 -9 13 -11 1 -19 -12 -8 -9 -11
11 -16 29 -7 47 -35 22 -35 -8 0 -17 7 -20 15 -7 17 -34 21 -34 5 0 -5 6 -10
14 -10 8 0 16 -4 18 -8 2 -4 17 -18 35 -30 30 -21 63 -21 63 0 0 7 5 6 13 -1
8 -6 18 -7 22 -3 5 4 5 1 1 -6 -4 -7 -1 -15 8 -18 9 -3 13 -10 10 -15 -3 -6 5
-7 21 -3 19 5 25 3 23 -7 -2 -7 2 -14 7 -14 6 -1 18 -5 27 -9 26 -12 10 -29
-21 -22 -20 5 -22 4 -10 -4 10 -5 33 -12 53 -15 33 -4 35 -3 21 11 -25 25 -17
29 9 5 14 -13 28 -21 33 -18 4 2 19 1 32 -4 23 -9 23 -10 5 -23 -12 -10 -23
-11 -31 -5 -7 7 -14 6 -18 -1 -4 -6 -13 -9 -21 -6 -11 4 -12 2 -1 -14 6 -11
13 -16 15 -10 2 5 9 4 17 -3 7 -7 11 -15 8 -19 -2 -5 1 -8 7 -8 7 0 9 8 5 21
-6 18 -5 20 14 10 15 -9 21 -9 21 -1 0 6 4 8 10 5 6 -4 5 -13 -2 -25 -7 -10
-16 -16 -20 -14 -4 3 -8 0 -8 -5 0 -14 27 -14 35 -1 9 14 27 1 21 -15 -3 -8 2
-19 9 -25 12 -10 16 -9 21 3 5 14 8 14 27 -1 60 -48 107 -101 101 -116 -3 -9
-2 -17 2 -17 5 -1 20 -3 33 -4 13 -1 28 -9 32 -18 5 -8 25 -18 44 -21 19 -4
35 -11 35 -16 0 -5 12 -7 28 -5 15 2 30 4 34 4 4 1 5 9 2 19 -5 14 -4 15 5 2
8 -11 7 -17 -3 -24 -11 -8 -10 -13 9 -28 32 -25 43 -23 40 7 -2 14 1 25 7 25
6 0 7 -7 4 -16 -4 -9 -1 -23 5 -30 6 -7 8 -18 4 -24 -4 -6 -1 -9 5 -8 6 2 19
-8 28 -22 l16 -25 -24 20 c-22 18 -23 18 -10 1 8 -10 32 -30 53 -43 21 -13 43
-35 49 -49 6 -14 17 -23 25 -20 7 3 18 -3 25 -13 7 -9 22 -21 33 -25 19 -7 19
-8 2 -17 -13 -8 -22 -6 -33 6 -9 9 -18 14 -20 12 -7 -7 8 -37 18 -37 5 0 6 -4
3 -10 -3 -6 1 -7 10 -4 8 4 22 1 30 -6 13 -11 18 -8 17 10 0 3 13 6 29 6 16 1
29 -2 29 -7 0 -4 12 3 27 17 28 26 45 18 35 -18 -3 -15 -7 -16 -13 -7 -5 8 -3
17 4 21 9 6 9 8 -1 8 -18 0 -27 -30 -12 -40 16 -10 52 -1 44 11 -3 5 1 9 8 9
10 0 9 3 -2 11 -13 9 -13 10 0 6 8 -2 14 -12 13 -23 -2 -26 29 -48 43 -29 7 9
15 10 25 4 12 -8 12 -9 -1 -9 -10 0 -11 -3 -3 -11 14 -14 57 7 47 23 -4 7 -3
8 5 4 6 -4 8 -13 4 -19 -4 -7 -9 -21 -10 -32 -2 -11 -9 -24 -15 -30 -7 -7 -9
-7 -5 1 3 6 0 11 -7 11 -15 0 -15 -21 -1 -34 4 -4 5 -2 1 4 -5 9 -2 11 9 7 17
-7 15 -14 -7 -17 -27 -4 -22 -21 7 -22 34 0 64 -42 42 -58 -7 -5 -1 -5 13 -1
36 10 92 6 100 -7 4 -6 10 -10 14 -10 22 3 27 -1 21 -19 -4 -12 -2 -20 5 -20
6 0 8 -5 4 -12 -5 -7 -2 -9 8 -5 10 3 25 -4 38 -18 20 -21 21 -27 9 -42 -7
-10 -9 -15 -5 -11 5 4 15 3 23 -4 12 -10 13 -7 8 18 l-6 29 14 -24 c13 -22 13
-28 0 -48 -16 -25 -33 -30 -33 -11 0 6 -3 8 -6 5 -4 -4 -2 -13 5 -21 17 -20
48 -8 59 23 l10 26 7 -27 c4 -14 18 -36 31 -49 13 -12 24 -29 24 -36 0 -8 3
-12 8 -9 4 2 16 -3 27 -11 16 -12 16 -14 3 -10 -20 7 -35 -9 -16 -16 10 -4 10
-6 0 -6 -7 -1 -11 -5 -8 -10 4 -5 -3 -7 -14 -4 -16 4 -18 9 -9 19 12 15 4 34
-14 34 -8 0 -7 -3 2 -9 22 -14 -19 -32 -43 -19 -25 14 -30 4 -9 -18 10 -9 16
-19 13 -20 -3 -1 -1 -6 4 -11 5 -5 6 -3 2 5 -4 6 -2 12 3 12 6 0 11 -4 11 -10
0 -5 4 -10 10 -10 17 0 49 -33 43 -43 -3 -6 -1 -7 5 -3 6 3 14 1 19 -6 12 -20
12 -38 0 -38 -7 0 -7 -4 1 -12 10 -10 15 -10 22 2 9 15 9 15 74 -42 10 -10 23
-15 27 -12 5 3 19 -5 31 -18 13 -13 38 -28 56 -35 l32 -11 -17 28 c-9 16 -19
27 -22 25 -4 -2 -17 2 -30 9 -22 12 -19 13 27 12 28 -1 54 -5 59 -10 5 -5 3
-6 -4 -2 -7 4 -13 3 -13 -2 0 -19 28 -20 48 -1 12 10 26 19 32 19 6 0 8 5 4
12 -5 7 -3 8 7 2 8 -5 22 -7 32 -5 14 2 18 -3 15 -16 -2 -10 -14 -19 -27 -21
-15 -2 -21 0 -17 7 4 6 2 11 -5 11 -7 0 -9 -10 -6 -25 4 -25 4 -25 -16 -8 -20
18 -20 18 -5 -12 15 -31 13 -65 -4 -76 -7 -5 -5 -14 4 -28 8 -11 18 -18 23
-13 4 4 4 -4 0 -17 -5 -16 -4 -21 4 -17 7 5 9 1 5 -8 -4 -9 1 -18 10 -22 21
-8 20 -31 -1 -37 -14 -4 -15 -5 -2 -6 27 -2 57 35 53 66 -4 24 -3 25 6 8 13
-26 6 122 -10 215 -6 36 -13 83 -16 105 -2 22 -9 76 -15 120 -24 181 -36 291
-32 301 2 5 42 45 89 88 99 91 202 211 278 325 69 103 165 298 182 367 4 16
10 34 15 39 4 6 20 69 36 140 24 118 27 150 28 340 0 239 -14 342 -69 504 -72
211 -176 390 -315 543 -19 21 -40 46 -47 57 -19 26 -229 201 -242 201 -7 0
-12 -99 -14 -297z m-2721 -579 c-3 -3 -12 -4 -19 -1 -8 3 -5 6 6 6 11 1 17 -2
13 -5z m-149 -182 c2 -7 -2 -10 -12 -6 -9 3 -16 11 -16 16 0 13 23 5 28 -10z
m22 -72 c0 -11 -7 -20 -15 -20 -8 0 -15 5 -15 11 0 5 5 7 10 4 6 -3 10 1 10 9
0 9 2 16 5 16 3 0 5 -9 5 -20z m250 -145 c0 -2 -7 -8 -15 -15 -12 -10 -15 -10
-15 2 0 8 7 15 15 15 8 0 15 -1 15 -2z m652 -382 c-10 -4 -10 -8 -1 -19 15
-18 2 -18 -17 0 -14 14 -5 24 21 24 6 0 4 -2 -3 -5z m625 -429 c-3 -3 -12 -4
-19 -1 -8 3 -5 6 6 6 11 1 17 -2 13 -5z m218 -54 c3 -5 1 -10 -4 -10 -6 0 -11
5 -11 10 0 6 2 10 4 10 3 0 8 -4 11 -10z m15 -100 c6 -11 8 -20 6 -20 -3 0
-10 9 -16 20 -6 11 -8 20 -6 20 3 0 10 -9 16 -20z m360 -178 c0 -5 -11 -14
-25 -20 -24 -11 -25 -10 -15 8 10 20 40 28 40 12z m115 -92 c10 -11 16 -20 13
-20 -3 0 -13 9 -23 20 -10 11 -16 20 -13 20 3 0 13 -9 23 -20z m-33 -42 c-6
-6 -15 -8 -19 -3 -5 4 -2 10 5 12 6 3 9 10 6 16 -5 8 -2 8 7 0 10 -10 10 -16
1 -25z m36 -42 c0 -17 -5 -23 -14 -19 -8 3 -12 9 -9 13 3 5 2 10 -2 13 -5 2
-2 2 5 1 6 -2 12 1 12 6 0 6 2 10 4 10 2 0 4 -11 4 -24z m183 -124 c-7 -2 -18
1 -23 6 -8 8 -4 9 13 5 13 -4 18 -8 10 -11z m164 -282 c3 -5 1 -10 -4 -10 -6
0 -11 5 -11 10 0 6 2 10 4 10 3 0 8 -4 11 -10z m365 -100 c0 -5 -2 -10 -4 -10
-3 0 -8 5 -11 10 -3 6 -1 10 4 10 6 0 11 -4 11 -10z"/>
<path d="M3071 5454 c0 -11 3 -14 6 -6 3 7 2 16 -1 19 -3 4 -6 -2 -5 -13z"/>
<path d="M3567 5054 c-9 -50 -16 -115 -16 -145 1 -54 1 -54 9 -14 4 21 13 41
19 43 13 4 15 49 2 54 -5 2 -5 27 0 62 16 98 5 98 -14 0z"/>
<path d="M3692 5085 c15 -16 20 -17 30 -6 11 11 10 13 0 7 -7 -4 -21 -2 -30 5
-15 12 -15 11 0 -6z"/>
<path d="M3730 4860 c-8 -5 -10 -10 -5 -10 6 0 17 5 25 10 8 5 11 10 5 10 -5
0 -17 -5 -25 -10z"/>
<path d="M3670 4840 c0 -5 5 -10 11 -10 5 0 7 5 4 10 -3 6 -8 10 -11 10 -2 0
-4 -4 -4 -10z"/>
<path d="M3813 4829 c9 -6 15 -15 12 -20 -4 -5 -10 -7 -15 -4 -5 3 -12 0 -16
-6 -4 -7 -3 -9 4 -5 5 3 13 0 15 -6 4 -10 6 -9 6 1 1 10 4 11 15 2 10 -9 16
-8 26 4 10 12 10 15 -4 15 -11 0 -14 5 -10 12 4 6 3 8 -4 4 -6 -3 -13 -2 -17
4 -3 5 -12 10 -18 10 -7 0 -4 -5 6 -11z"/>
<path d="M3700 4826 c0 -2 7 -7 16 -10 8 -3 12 -2 9 4 -6 10 -25 14 -25 6z"/>
<path d="M3910 4760 c0 -6 -4 -8 -10 -5 -6 3 -7 -1 -4 -9 3 -9 12 -16 20 -16
16 0 19 26 4 35 -5 3 -10 1 -10 -5z"/>
<path d="M3780 4740 c0 -5 7 -7 15 -4 8 4 15 8 15 10 0 2 -7 4 -15 4 -8 0 -15
-4 -15 -10z"/>
<path d="M3810 4730 c-8 -5 -10 -10 -5 -10 6 0 17 5 25 10 8 5 11 10 5 10 -5
0 -17 -5 -25 -10z"/>
<path d="M4196 4628 c3 -4 9 -8 15 -8 5 0 9 4 9 8 0 5 -7 9 -15 9 -8 0 -12 -4
-9 -9z"/>
<path d="M3557 4555 c3 -38 9 -75 13 -80 5 -6 11 -26 13 -45 2 -19 3 -11 2 18
-1 28 2 52 7 52 5 0 2 7 -6 16 -15 15 -19 26 -30 84 -3 14 -2 -6 1 -45z"/>
<path d="M4234 4558 c-5 -7 -2 -9 8 -5 9 3 21 0 27 -6 13 -13 43 -19 36 -7 -3
5 1 11 7 14 7 3 0 4 -15 1 -19 -4 -26 -2 -22 5 3 5 -3 10 -14 10 -11 0 -23 -5
-27 -12z"/>
<path d="M4445 4520 c3 -5 11 -10 16 -10 6 0 7 5 4 10 -3 6 -11 10 -16 10 -6
0 -7 -4 -4 -10z"/>
<path d="M4340 4431 c0 -5 7 -12 16 -15 14 -5 15 -4 4 9 -14 17 -20 19 -20 6z"/>
<path d="M4390 4406 c0 -2 7 -7 16 -10 8 -3 12 -2 9 4 -6 10 -25 14 -25 6z"/>
<path d="M4490 4396 c0 -2 7 -7 16 -10 8 -3 12 -2 9 4 -6 10 -25 14 -25 6z"/>
<path d="M4761 4344 c0 -11 3 -14 6 -6 3 7 2 16 -1 19 -3 4 -6 -2 -5 -13z"/>
<path d="M4970 4141 c0 -6 4 -13 10 -16 6 -3 7 1 4 9 -7 18 -14 21 -14 7z"/>
<path d="M5134 4079 c-3 -6 -1 -16 4 -21 8 -8 11 -5 9 11 -1 24 -3 25 -13 10z"/>
<path d="M5207 3969 c7 -7 15 -10 18 -7 3 3 -2 9 -12 12 -14 6 -15 5 -6 -5z"/>
<path d="M5244 3929 c-10 -11 -12 -19 -6 -19 7 0 12 5 12 12 0 6 3 8 8 4 4 -4
7 -13 7 -19 0 -7 7 -12 15 -12 8 0 21 -7 28 -15 11 -13 11 -11 2 8 -13 27 -4
45 10 22 8 -13 10 -12 10 2 0 15 -21 28 -57 34 -6 1 -19 -7 -29 -17z m52 -2
c4 -4 0 -7 -9 -7 -9 0 -18 4 -21 9 -7 10 20 9 30 -2z"/>
<path d="M5195 3920 c3 -5 8 -10 11 -10 2 0 4 5 4 10 0 6 -5 10 -11 10 -5 0
-7 -4 -4 -10z"/>
<path d="M5356 3898 c-22 -12 -20 -23 4 -25 11 -1 18 2 15 8 -4 5 1 9 9 9 9 0
16 4 16 8 0 11 -24 11 -44 0z"/>
<path d="M5258 3878 c5 -5 16 -8 23 -6 8 3 3 7 -10 11 -17 4 -21 3 -13 -5z"/>
<path d="M5256 3826 c3 -8 12 -12 20 -9 7 3 16 -1 19 -8 4 -11 55 -24 55 -14
0 3 -88 45 -95 45 -2 0 -2 -6 1 -14z"/>
<path d="M5196 3823 c5 -5 12 -12 15 -16 3 -5 9 -2 12 7 5 12 0 16 -15 16 -12
0 -17 -3 -12 -7z"/>
<path d="M5580 3716 c0 -2 8 -10 18 -17 15 -13 16 -12 3 4 -13 16 -21 21 -21
13z"/>
<path d="M5760 3595 c6 -7 7 -21 4 -31 -5 -13 0 -10 14 8 27 33 27 33 -3 34
-20 2 -23 -1 -15 -11z"/>
<path d="M6106 3383 c-6 -14 -5 -15 5 -6 7 7 10 15 7 18 -3 3 -9 -2 -12 -12z"/>
<path d="M6130 3340 c6 -11 13 -20 16 -20 2 0 0 9 -6 20 -6 11 -13 20 -16 20
-2 0 0 -9 6 -20z"/>
<path d="M6165 3320 c-3 -5 -1 -10 4 -10 6 0 11 5 11 10 0 6 -2 10 -4 10 -3 0
-8 -4 -11 -10z"/>
<path d="M6195 3305 c0 -14 3 -25 8 -25 4 0 7 11 7 25 0 14 -3 25 -7 25 -5 0
-8 -11 -8 -25z"/>
<path d="M6290 3196 c0 -2 7 -7 16 -10 8 -3 12 -2 9 4 -6 10 -25 14 -25 6z"/>
<path d="M6244 3132 c-9 -5 -8 -10 1 -19 11 -10 13 -9 12 7 -1 11 -1 20 -2 20
0 0 -5 -4 -11 -8z"/>
<path d="M5130 3082 c0 -5 17 -12 38 -14 61 -8 60 9 -2 19 -22 3 -36 2 -36 -5z"/>
<path d="M5680 3079 c0 -5 -3 -8 -7 -6 -5 3 -17 1 -28 -4 -16 -6 -14 -8 13 -8
17 -1 32 3 32 9 0 5 8 7 18 4 14 -5 15 -4 2 5 -19 14 -30 14 -30 0z"/>
<path d="M5738 3073 c7 -3 16 -2 19 1 4 3 -2 6 -13 5 -11 0 -14 -3 -6 -6z"/>
<path d="M5553 3063 c9 -2 25 -2 35 0 9 3 1 5 -18 5 -19 0 -27 -2 -17 -5z"/>
<path d="M6260 3050 c0 -6 7 -10 15 -10 8 0 15 2 15 4 0 2 -7 6 -15 10 -8 3
-15 1 -15 -4z"/>
<path d="M6125 3030 c-3 -5 -1 -10 5 -10 7 0 29 -13 49 -30 21 -16 48 -28 60
-27 l23 1 -22 18 c-12 10 -32 18 -44 19 -11 0 -15 3 -8 6 10 4 10 8 1 19 -14
17 -33 19 -23 2 6 -10 4 -10 -7 0 -16 15 -26 15 -34 2z"/>
<path d="M6231 3024 c0 -11 3 -14 6 -6 3 7 2 16 -1 19 -3 4 -6 -2 -5 -13z"/>
<path d="M6340 3015 c0 -8 4 -15 10 -15 5 0 7 -6 4 -14 -7 -18 15 -31 29 -17
7 7 3 17 -16 35 -19 18 -27 21 -27 11z"/>
<path d="M6297 3006 c-4 -10 1 -12 14 -9 23 6 24 9 5 16 -8 3 -17 0 -19 -7z"/>
<path d="M6266 2951 c-4 -7 -5 -15 -2 -18 9 -9 19 4 14 18 -4 11 -6 11 -12 0z"/>
<path d="M6440 2931 c0 -5 5 -13 10 -16 6 -3 10 -2 10 4 0 5 -4 13 -10 16 -5
3 -10 2 -10 -4z"/>
<path d="M6621 2894 c0 -11 3 -14 6 -6 3 7 2 16 -1 19 -3 4 -6 -2 -5 -13z"/>
<path d="M6487 2889 c7 -7 15 -10 18 -7 3 3 -2 9 -12 12 -14 6 -15 5 -6 -5z"/>
<path d="M6450 2881 c0 -7 -5 -9 -12 -5 -8 5 -7 0 2 -11 13 -17 13 -18 -1 -13
-9 4 -21 2 -27 -4 -12 -12 31 -58 54 -58 8 0 14 -5 14 -10 0 -6 6 -5 14 2 10
9 11 15 2 20 -6 4 -7 8 -1 8 6 0 2 5 -8 11 -11 7 -16 17 -12 28 3 10 -1 24
-10 31 -11 9 -15 9 -15 1z"/>
<path d="M6370 2860 c8 -5 20 -10 25 -10 6 0 3 5 -5 10 -8 5 -19 10 -25 10 -5
0 -3 -5 5 -10z"/>
<path d="M6530 2849 c0 -5 5 -7 10 -4 6 3 10 8 10 11 0 2 -4 4 -10 4 -5 0 -10
-5 -10 -11z"/>
<path d="M6604 2691 c3 -5 22 -18 42 -30 19 -12 32 -17 29 -11 -3 5 -1 10 5
10 7 0 5 7 -5 16 -8 9 -22 13 -30 10 -8 -3 -15 -1 -15 4 0 6 -7 10 -16 10 -8
0 -13 -4 -10 -9z"/>
</g>
</svg>
